<svg width="192" height="192" viewBox="0 0 192 192" fill="none" xmlns="http://www.w3.org/2000/svg">
<rect width="192" height="192" rx="30" fill="#F4F1EE"/>
<path d="M94.3686 148.751C84.8018 148.751 75.2351 148.786 65.6683 148.74C59.2924 148.71 54.9226 145.229 53.7553 139.285C53.1394 136.167 53.8316 133.301 55.6147 130.646C61.844 121.385 68.1084 112.153 74.2027 102.81C77.9802 97.0194 81.0889 90.8592 81.2825 83.7436C81.4467 77.683 81.3294 71.6107 81.3294 65.5442C81.3294 64.7412 81.2825 63.9383 81.3411 63.1411C81.4174 62.0509 81.1124 61.2596 80.2795 60.4391C78.5491 58.7276 78.1385 56.553 78.9597 54.2612C79.863 51.7467 81.7752 50.2638 84.3971 50.2169C91.0956 50.0997 97.7999 50.0939 104.498 50.2228C107.032 50.2756 108.933 51.7292 109.836 54.1675C110.728 56.5882 110.141 58.7334 108.44 60.6794C107.942 61.2538 107.543 62.1388 107.537 62.8832C107.472 69.6941 107.455 76.5049 107.519 83.3157C107.578 89.2708 109.631 94.7101 112.751 99.6277C118.687 109 124.928 118.185 131.046 127.451C131.709 128.454 132.36 129.462 133.052 130.446C135.826 134.391 136.061 138.564 133.844 142.749C131.703 146.788 128.148 148.74 123.579 148.751C114.529 148.769 105.478 148.757 96.4274 148.763C95.747 148.745 95.0607 148.745 94.3686 148.751ZM85.447 62.4378C85.447 63.2056 85.447 63.821 85.447 64.4306C85.447 70.7843 85.4822 77.1379 85.4118 83.4916C85.3942 85.25 85.1831 87.0377 84.8429 88.7667C83.5759 95.1673 80.5551 100.818 77.0065 106.187C71.0764 115.16 65.0231 124.058 59.0343 132.996C57.3509 135.511 57.2395 138.172 58.6355 140.798C59.9435 143.265 62.0903 144.56 64.9292 144.56C84.5203 144.566 104.111 144.566 123.696 144.56C126.653 144.56 128.94 143.318 130.26 140.674C131.586 138.025 131.451 135.393 129.709 132.891C127.978 130.4 126.295 127.873 124.629 125.341C119.467 117.505 114.177 109.75 109.208 101.791C105.067 95.1556 102.967 87.8817 103.349 79.922C103.595 74.723 103.396 69.5065 103.384 64.2958C103.384 63.6921 103.319 63.0884 103.284 62.4319C97.3131 62.4378 91.5414 62.4378 85.447 62.4378ZM94.3099 58.2762C97.3952 58.2762 100.48 58.2528 103.566 58.288C104.962 58.3056 106.029 57.8308 106.082 56.3596C106.135 54.8767 105.108 54.3257 103.695 54.3257C97.5242 54.3374 91.3595 54.3257 85.1889 54.314C83.8047 54.3081 82.743 54.7946 82.7665 56.3127C82.7899 57.8132 83.8516 58.2938 85.23 58.2821C88.2508 58.2645 91.2774 58.2762 94.3099 58.2762Z" fill="#010202"/>
<path d="M94.3862 141.653C84.8253 141.653 75.2644 141.636 65.6977 141.671C63.7679 141.677 62.149 141.184 61.2398 139.397C60.36 137.668 60.6415 136.032 61.756 134.403C65.4161 129.075 68.9765 123.677 72.6132 118.337C74.279 115.893 75.9507 115.506 78.2089 117.341C85.4236 123.208 93.3715 121.057 98.9965 116.637C100.346 115.576 101.613 114.404 102.991 113.39C106.628 110.712 111.109 111.368 113.678 115.049C118.23 121.567 122.688 128.149 127.186 134.708C128.213 136.202 128.407 137.773 127.538 139.391C126.664 141.02 125.227 141.665 123.415 141.665C113.737 141.653 104.064 141.659 94.3862 141.659V141.653Z" fill="#D98E8E"/>
<path d="M101.091 14.0059C102.146 14.2872 103.179 14.6096 104.006 15.3833C104.78 16.1101 105.29 16.9834 105.595 17.9857C105.666 18.226 105.76 18.4605 105.836 18.6656C106.633 18.4605 107.361 18.185 108.112 18.1029C110.417 17.8567 112.464 19.0056 113.432 20.9925C114.405 22.9912 113.971 25.5819 112.388 27.2524C110.968 28.7412 109.162 29.5969 107.238 30.1244C105.255 30.6695 103.226 31.0271 101.202 31.3964C100.228 31.5722 99.366 31.1853 98.8381 30.3296C97.0785 27.4634 95.6003 24.48 95.1135 21.098C94.6384 17.7981 96.2925 15.0199 99.2018 14.2227C99.4599 14.1524 99.718 14.0762 99.9761 14C100.34 14.0059 100.715 14.0059 101.091 14.0059Z" fill="#D98E8E"/>
<path d="M86.7139 45.6979C84.309 45.1235 81.9921 44.3322 80.0917 42.6793C78.2382 41.0675 78.1032 38.5061 79.7397 36.9118C80.7721 35.9095 82.3265 35.6575 83.7166 36.2729C83.9923 36.396 84.2504 36.5425 84.5436 36.6891C85.0422 35.4523 85.7989 34.5087 87.0952 34.1394C89.723 33.3892 92.1924 35.6868 91.729 38.4768C91.5999 39.2505 91.424 40.0711 91.0486 40.7392C90.2157 42.2222 89.2596 43.6347 88.3211 45.0532C87.9457 45.5983 87.365 45.8503 86.7139 45.6979Z" fill="#D98E8E"/>
<path d="M92.5444 79.0195C91.342 78.7323 90.1806 78.3396 89.2303 77.5073C88.3036 76.6984 88.2391 75.4207 89.0544 74.6235C89.5705 74.1194 90.3507 73.9963 91.0428 74.307C91.1777 74.3656 91.3126 74.4418 91.4593 74.518C91.7056 73.8967 92.0869 73.4278 92.7321 73.2402C94.046 72.8651 95.2836 74.0139 95.049 75.4089C94.9845 75.7958 94.8965 76.2061 94.7088 76.5402C94.2923 77.2787 93.8172 77.9879 93.3421 78.6971C93.1603 78.9726 92.867 79.0957 92.5444 79.0195Z" fill="#D98E8E"/>
<path d="M96.181 95.8941C95.0666 94.4991 94.0929 93.0162 93.741 91.2285C93.4008 89.4877 94.4624 87.9579 96.1048 87.7762C97.143 87.659 98.1401 88.2099 98.6563 89.1771C98.756 89.3705 98.844 89.5698 98.9437 89.7808C99.7767 89.2943 100.627 89.0891 101.536 89.4584C103.372 90.1969 103.759 92.6059 102.252 93.9951C101.835 94.3819 101.372 94.7687 100.856 94.9856C99.7239 95.4604 98.5449 95.8414 97.3776 96.2341C96.926 96.3865 96.4802 96.2751 96.181 95.8941Z" fill="#D98E8E"/>
<path d="M90.8786 116.11C88.4737 115.535 86.1568 114.744 84.2563 113.091C82.4028 111.479 82.2679 108.918 83.9044 107.324C84.9368 106.321 86.4911 106.069 87.8813 106.685C88.157 106.808 88.415 106.954 88.7083 107.101C89.2069 105.864 89.9636 104.921 91.2598 104.551C93.8876 103.801 96.357 106.099 95.8936 108.889C95.7646 109.662 95.5886 110.483 95.2132 111.151C94.3803 112.634 93.4242 114.047 92.4858 115.465C92.1104 116.016 91.5238 116.268 90.8786 116.11Z" fill="#D98E8E"/>
</svg>
