<svg width="33" height="40" viewBox="0 0 33 40" fill="none" xmlns="http://www.w3.org/2000/svg">
<rect x="0.5" y="0.5" width="32" height="39" rx="4.5" fill="#DEFFCF" stroke="#368C0D"/>
<path d="M20.6977 5.74535C19.6318 4.61982 18.1431 4 16.5 4C14.8481 4 13.3544 4.61607 12.2935 5.73463C11.2211 6.86552 10.6985 8.40247 10.8212 10.0621C11.0644 13.3364 13.6119 15.9999 16.5 15.9999C19.3881 15.9999 21.9312 13.3369 22.1782 10.0632C22.3025 8.41855 21.7767 6.8848 20.6977 5.74535ZM26.1398 27.9999H6.86013C6.60778 28.0031 6.35786 27.9512 6.12858 27.8481C5.89929 27.7449 5.69639 27.5931 5.53465 27.4036C5.17863 26.9874 5.03513 26.419 5.14139 25.8442C5.60366 23.336 7.04635 21.229 9.31391 19.7499C11.3284 18.4369 13.8802 17.7142 16.5 17.7142C19.1197 17.7142 21.6715 18.4374 23.686 19.7499C25.9536 21.2285 27.3963 23.3354 27.8586 25.8436C27.9648 26.4184 27.8213 26.9868 27.4653 27.4031C27.3036 27.5927 27.1007 27.7446 26.8714 27.8478C26.6422 27.9511 26.3922 28.003 26.1398 27.9999Z" fill="#3B3636"/>
<path d="M0.5 28.46H32.5V34.84C32.5 37.3252 30.4853 39.34 28 39.34H5C2.51472 39.34 0.5 37.3252 0.5 34.84V28.46Z" fill="#DEFFCF" stroke="#368C0D"/>
<path d="M3.19886 31.9158V31.3636H6.10014V31.9158H4.97621V35H4.3228V31.9158H3.19886ZM7.44292 35.0533C7.16948 35.0533 6.93333 34.9964 6.73446 34.8828C6.53678 34.768 6.38468 34.6058 6.27814 34.3963C6.17161 34.1856 6.11834 33.9376 6.11834 33.6523C6.11834 33.3718 6.17161 33.1256 6.27814 32.9137C6.38586 32.7006 6.53619 32.5349 6.72914 32.4165C6.92208 32.297 7.14876 32.2372 7.40918 32.2372C7.57727 32.2372 7.73588 32.2644 7.88503 32.3189C8.03536 32.3722 8.16794 32.455 8.28276 32.5675C8.39876 32.6799 8.48991 32.8232 8.5562 32.9972C8.62248 33.17 8.65563 33.3759 8.65563 33.6151V33.8121H6.42019V33.3789H8.03951C8.03832 33.2558 8.01169 33.1463 7.95961 33.0504C7.90752 32.9534 7.83472 32.877 7.74121 32.8214C7.64888 32.7657 7.54116 32.7379 7.41806 32.7379C7.28667 32.7379 7.17125 32.7699 7.07182 32.8338C6.97239 32.8965 6.89486 32.9794 6.83922 33.0824C6.78477 33.1842 6.75695 33.296 6.75577 33.418V33.7962C6.75577 33.9548 6.78477 34.0909 6.84277 34.2045C6.90078 34.317 6.98186 34.4034 7.08603 34.4638C7.19019 34.523 7.31212 34.5526 7.45179 34.5526C7.54531 34.5526 7.62994 34.5395 7.7057 34.5135C7.78146 34.4863 7.84715 34.4466 7.90279 34.3945C7.95842 34.3424 8.00044 34.2779 8.02885 34.201L8.629 34.2685C8.59112 34.4271 8.51891 34.5656 8.41238 34.6839C8.30703 34.8011 8.17208 34.8923 8.00755 34.9574C7.84301 35.0213 7.6548 35.0533 7.44292 35.0533ZM11.3549 32.9936L10.769 33.0575C10.7524 32.9983 10.7234 32.9427 10.682 32.8906C10.6417 32.8385 10.5873 32.7965 10.5186 32.7646C10.45 32.7326 10.3659 32.7166 10.2665 32.7166C10.1328 32.7166 10.0203 32.7456 9.92915 32.8036C9.83919 32.8616 9.7948 32.9368 9.79599 33.0291C9.7948 33.1084 9.8238 33.1729 9.88299 33.2227C9.94336 33.2724 10.0428 33.3132 10.1813 33.3452L10.6465 33.4446C10.9045 33.5002 11.0963 33.5884 11.2218 33.7092C11.3484 33.8299 11.4123 33.9879 11.4135 34.1832C11.4123 34.3549 11.362 34.5064 11.2626 34.6378C11.1644 34.768 11.0276 34.8698 10.8525 34.9432C10.6773 35.0166 10.476 35.0533 10.2488 35.0533C9.91495 35.0533 9.64625 34.9834 9.44265 34.8438C9.23905 34.7029 9.11772 34.507 9.07866 34.256L9.70543 34.1957C9.73384 34.3188 9.79421 34.4117 9.88654 34.4744C9.97887 34.5372 10.099 34.5685 10.247 34.5685C10.3997 34.5685 10.5222 34.5372 10.6145 34.4744C10.708 34.4117 10.7548 34.3342 10.7548 34.2418C10.7548 34.1637 10.7246 34.0992 10.6642 34.0483C10.6051 33.9974 10.5127 33.9583 10.3873 33.9311L9.92205 33.8335C9.66045 33.779 9.46692 33.6873 9.34144 33.5582C9.21597 33.428 9.15382 33.2635 9.15501 33.0646C9.15382 32.8965 9.1994 32.7509 9.29173 32.6278C9.38524 32.5036 9.51486 32.4077 9.68058 32.3402C9.84748 32.2715 10.0398 32.2372 10.2576 32.2372C10.5772 32.2372 10.8288 32.3053 11.0123 32.4414C11.1969 32.5775 11.3111 32.7616 11.3549 32.9936ZM14.0991 32.9936L13.5131 33.0575C13.4966 32.9983 13.4676 32.9427 13.4261 32.8906C13.3859 32.8385 13.3314 32.7965 13.2628 32.7646C13.1941 32.7326 13.1101 32.7166 13.0107 32.7166C12.8769 32.7166 12.7644 32.7456 12.6733 32.8036C12.5833 32.8616 12.5389 32.9368 12.5401 33.0291C12.5389 33.1084 12.5679 33.1729 12.6271 33.2227C12.6875 33.2724 12.7869 33.3132 12.9254 33.3452L13.3906 33.4446C13.6487 33.5002 13.8404 33.5884 13.9659 33.7092C14.0926 33.8299 14.1565 33.9879 14.1577 34.1832C14.1565 34.3549 14.1062 34.5064 14.0067 34.6378C13.9085 34.768 13.7718 34.8698 13.5966 34.9432C13.4214 35.0166 13.2202 35.0533 12.9929 35.0533C12.6591 35.0533 12.3904 34.9834 12.1868 34.8438C11.9832 34.7029 11.8619 34.507 11.8228 34.256L12.4496 34.1957C12.478 34.3188 12.5384 34.4117 12.6307 34.4744C12.723 34.5372 12.8432 34.5685 12.9911 34.5685C13.1438 34.5685 13.2663 34.5372 13.3587 34.4744C13.4522 34.4117 13.4989 34.3342 13.4989 34.2418C13.4989 34.1637 13.4688 34.0992 13.4084 34.0483C13.3492 33.9974 13.2569 33.9583 13.1314 33.9311L12.6662 33.8335C12.4046 33.779 12.2111 33.6873 12.0856 33.5582C11.9601 33.428 11.898 33.2635 11.8991 33.0646C11.898 32.8965 11.9435 32.7509 12.0359 32.6278C12.1294 32.5036 12.259 32.4077 12.4247 32.3402C12.5916 32.2715 12.784 32.2372 13.0018 32.2372C13.3214 32.2372 13.5729 32.3053 13.7564 32.4414C13.9411 32.5775 14.0553 32.7616 14.0991 32.9936ZM15.7965 31.9158V31.3636H18.6978V31.9158H17.5739V35H16.9205V31.9158H15.7965ZM19.2287 35V32.2727H19.8714V35H19.2287ZM19.5518 31.8857C19.45 31.8857 19.3625 31.8519 19.2891 31.7844C19.2157 31.7158 19.179 31.6335 19.179 31.5376C19.179 31.4406 19.2157 31.3583 19.2891 31.2908C19.3625 31.2222 19.45 31.1879 19.5518 31.1879C19.6548 31.1879 19.7424 31.2222 19.8146 31.2908C19.888 31.3583 19.9247 31.4406 19.9247 31.5376C19.9247 31.6335 19.888 31.7158 19.8146 31.7844C19.7424 31.8519 19.6548 31.8857 19.5518 31.8857ZM21.722 35.0533C21.4498 35.0533 21.216 34.9935 21.0207 34.8739C20.8266 34.7544 20.6768 34.5893 20.5715 34.3786C20.4673 34.1667 20.4152 33.9228 20.4152 33.647C20.4152 33.37 20.4685 33.1256 20.575 32.9137C20.6816 32.7006 20.8319 32.5349 21.026 32.4165C21.2213 32.297 21.4521 32.2372 21.7185 32.2372C21.9398 32.2372 22.1357 32.2781 22.3062 32.3597C22.4778 32.4402 22.6146 32.5545 22.7164 32.7024C22.8182 32.8492 22.8762 33.0208 22.8904 33.2173H22.276C22.2512 33.0859 22.192 32.9764 22.0985 32.8888C22.0061 32.8001 21.8824 32.7557 21.7274 32.7557C21.596 32.7557 21.4806 32.7912 21.3811 32.8622C21.2817 32.9321 21.2042 33.0327 21.1485 33.1641C21.0941 33.2955 21.0669 33.4529 21.0669 33.6364C21.0669 33.8222 21.0941 33.982 21.1485 34.1158C21.203 34.2483 21.2793 34.3507 21.3776 34.4229C21.477 34.494 21.5936 34.5295 21.7274 34.5295C21.8221 34.5295 21.9067 34.5117 21.9813 34.4762C22.057 34.4395 22.1204 34.3868 22.1713 34.3182C22.2222 34.2495 22.2571 34.1661 22.276 34.0678H22.8904C22.875 34.2608 22.8182 34.4318 22.7199 34.581C22.6217 34.7289 22.4879 34.8449 22.3186 34.929C22.1494 35.0118 21.9505 35.0533 21.722 35.0533ZM24.0041 34.1442L24.0023 33.3683H24.1053L25.0854 32.2727H25.8365L24.6309 33.6151H24.4977L24.0041 34.1442ZM23.4181 35V31.3636H24.0609V35H23.4181ZM25.1298 35L24.242 33.7589L24.6752 33.3061L25.8986 35H25.1298ZM26.9076 31.3636V35H26.2648V31.3636H26.9076ZM28.7759 35.0533C28.5025 35.0533 28.2663 34.9964 28.0675 34.8828C27.8698 34.768 27.7177 34.6058 27.6112 34.3963C27.5046 34.1856 27.4513 33.9376 27.4513 33.6523C27.4513 33.3718 27.5046 33.1256 27.6112 32.9137C27.7189 32.7006 27.8692 32.5349 28.0621 32.4165C28.2551 32.297 28.4818 32.2372 28.7422 32.2372C28.9103 32.2372 29.0689 32.2644 29.218 32.3189C29.3684 32.3722 29.5009 32.455 29.6158 32.5675C29.7318 32.6799 29.8229 32.8232 29.8892 32.9972C29.9555 33.17 29.9886 33.3759 29.9886 33.6151V33.8121H27.7532V33.3789H29.3725C29.3713 33.2558 29.3447 33.1463 29.2926 33.0504C29.2405 32.9534 29.1677 32.877 29.0742 32.8214C28.9819 32.7657 28.8742 32.7379 28.7511 32.7379C28.6197 32.7379 28.5043 32.7699 28.4048 32.8338C28.3054 32.8965 28.2279 32.9794 28.1722 33.0824C28.1178 33.1842 28.09 33.296 28.0888 33.418V33.7962C28.0888 33.9548 28.1178 34.0909 28.1758 34.2045C28.2338 34.317 28.3149 34.4034 28.419 34.4638C28.5232 34.523 28.6451 34.5526 28.7848 34.5526C28.8783 34.5526 28.9629 34.5395 29.0387 34.5135C29.1145 34.4863 29.1802 34.4466 29.2358 34.3945C29.2914 34.3424 29.3335 34.2779 29.3619 34.201L29.962 34.2685C29.9241 34.4271 29.8519 34.5656 29.7454 34.6839C29.64 34.8011 29.5051 34.8923 29.3406 34.9574C29.176 35.0213 28.9878 35.0533 28.7759 35.0533Z" fill="#3B3636"/>
</svg>
