<svg width="32" height="27" viewBox="0 0 32 27" fill="none" xmlns="http://www.w3.org/2000/svg">
<path d="M16.5714 11.25H20.5714V9H18.2857V7.875H16V9.05625C15.3056 9.19504 14.6884 9.58286 14.2682 10.1444C13.8479 10.706 13.6547 11.4012 13.7259 12.0952C13.7971 12.7891 14.1277 13.4322 14.6535 13.8997C15.1794 14.3672 15.8629 14.6257 16.5714 14.625H17.7143C17.8658 14.625 18.0112 14.6843 18.1183 14.7898C18.2255 14.8952 18.2857 15.0383 18.2857 15.1875C18.2857 15.3367 18.2255 15.4798 18.1183 15.5852C18.0112 15.6907 17.8658 15.75 17.7143 15.75H13.7143V18H16V19.125H18.2857V17.9438C18.9801 17.805 19.5973 17.4171 20.0175 16.8556C20.4378 16.294 20.631 15.5988 20.5598 14.9048C20.4886 14.2109 20.158 13.5678 19.6322 13.1003C19.1064 12.6328 18.4228 12.3743 17.7143 12.375H16.5714C16.4199 12.375 16.2745 12.3157 16.1674 12.2102C16.0602 12.1048 16 11.9617 16 11.8125C16 11.6633 16.0602 11.5202 16.1674 11.4148C16.2745 11.3093 16.4199 11.25 16.5714 11.25Z" fill="#89CFF0"/>
<path d="M30.8571 10.125H28.5486C28.5157 9.23617 28.2979 8.36343 27.9087 7.56077C27.5195 6.75811 26.9671 6.0426 26.2857 5.4585V1.125C26.2857 0.916075 26.2266 0.711276 26.115 0.533553C26.0034 0.35583 25.8438 0.212204 25.654 0.11877C25.4641 0.0253353 25.2516 -0.0142164 25.0402 0.00454632C24.8288 0.023309 24.6269 0.0996447 24.4571 0.225L20.1909 3.375H14.8571C8.56 3.375 4.04229 7.02113 3.488 12.375H3.42857C3.12547 12.375 2.83478 12.2565 2.62045 12.0455C2.40612 11.8345 2.28571 11.5484 2.28571 11.25V9H0V11.25C0.000907674 12.1448 0.362423 13.0028 1.00521 13.6355C1.64799 14.2682 2.51954 14.6241 3.42857 14.625H3.50857C3.67431 16.1002 4.16135 17.5228 4.93646 18.7958C5.71157 20.0688 6.75651 21.1623 8 22.0016V25.875C8 26.1734 8.12041 26.4595 8.33474 26.6705C8.54906 26.8815 8.83975 27 9.14286 27H13.7143C14.0174 27 14.3081 26.8815 14.5224 26.6705C14.7367 26.4595 14.8571 26.1734 14.8571 25.875V23.625H18.2857V25.875C18.2857 26.1734 18.4061 26.4595 18.6204 26.6705C18.8348 26.8815 19.1255 27 19.4286 27H24C24.3031 27 24.5938 26.8815 24.8081 26.6705C25.0225 26.4595 25.1429 26.1734 25.1429 25.875V22.0916C25.9684 21.7064 26.6902 21.1352 27.2499 20.4244C27.8096 19.7136 28.1915 18.883 28.3646 18H30.8571C31.1602 18 31.4509 17.8815 31.6653 17.6705C31.8796 17.4595 32 17.1734 32 16.875V11.25C32 10.9516 31.8796 10.6655 31.6653 10.4545C31.4509 10.2435 31.1602 10.125 30.8571 10.125ZM29.7143 15.75H26.4274C26.0789 18.8471 25.4869 19.6706 22.8571 20.6044V24.75H20.5714V21.375H12.5714V24.75H10.2857V20.6753C8.9096 20.0308 7.74865 19.0135 6.93898 17.7427C6.12931 16.4718 5.70447 15.0001 5.71429 13.5C5.71429 8.06063 10.3063 5.625 14.8571 5.625H20.9531L24 3.375V6.498C26.7634 8.5905 26.1863 10.0822 26.3063 12.375H29.7143V15.75Z" fill="#89CFF0"/>
</svg>
