<svg width="30" height="26" viewBox="0 0 30 26" fill="none" xmlns="http://www.w3.org/2000/svg">
<path d="M15 15.2C16.2538 15.2 17.4562 14.6943 18.3427 13.7941C19.2292 12.8939 19.7273 11.673 19.7273 10.4C19.7273 9.12696 19.2292 7.90606 18.3427 7.00589C17.4562 6.10571 16.2538 5.6 15 5.6C13.7462 5.6 12.5438 6.10571 11.6573 7.00589C10.7708 7.90606 10.2727 9.12696 10.2727 10.4C10.2727 11.673 10.7708 12.8939 11.6573 13.7941C12.5438 14.6943 13.7462 15.2 15 15.2ZM15 15.2C13.1194 15.2 11.3158 15.9586 9.98597 17.3088C8.65617 18.6591 7.90909 20.4904 7.90909 22.4V26M15 15.2C16.8806 15.2 18.6842 15.9586 20.014 17.3088C21.3438 18.6591 22.0909 20.4904 22.0909 22.4V26M16.1818 5.6C16.6593 3.6032 18.5632 2 20.9091 2C23.476 2 25.6127 4.148 25.6364 6.8C25.6127 9.452 23.476 11.6 20.9091 11.6M20.9091 11.6H19.7273M20.9091 11.6C24.7949 11.6 28 14.8232 28 18.8V21.2M13.8182 5.6C13.3407 3.6032 11.4368 2 9.09091 2C6.524 2 4.38727 4.148 4.36364 6.8C4.38727 9.452 6.524 11.6 9.09091 11.6M9.09091 11.6H10.2727M9.09091 11.6C5.20509 11.6 2 14.8232 2 18.8V21.2" stroke="#89CFF0" stroke-width="3"/>
</svg>
