<svg width="24" height="23" viewBox="0 0 24 23" fill="none" xmlns="http://www.w3.org/2000/svg">
<path fill-rule="evenodd" clip-rule="evenodd" d="M11.0562 0.365549C11.3082 0.131242 11.6471 0 12 0C12.3529 0 12.6918 0.131242 12.9438 0.365549L21.0337 8.03825L23.7303 10.5958C23.9251 10.8421 24.0196 11.1467 23.9966 11.4537C23.9736 11.7608 23.8346 12.0497 23.6051 12.2673C23.3756 12.485 23.071 12.6168 22.7473 12.6386C22.4235 12.6605 22.1023 12.5708 21.8427 12.3861L21.4382 12.0025V20.4424C21.4382 21.1207 21.1541 21.7713 20.6484 22.2509C20.1427 22.7305 19.4568 23 18.7416 23H14.6966C14.339 23 13.9961 22.8653 13.7432 22.6255C13.4904 22.3856 13.3483 22.0604 13.3483 21.7212V17.8849H10.6517V21.7212C10.6517 22.4885 10.1124 23 9.30337 23H5.25843C4.54324 23 3.85734 22.7305 3.35162 22.2509C2.84591 21.7713 2.5618 21.1207 2.5618 20.4424V12.0025L2.1573 12.3861C1.89766 12.5708 1.57648 12.6605 1.25274 12.6386C0.928992 12.6168 0.624413 12.485 0.394914 12.2673C0.165416 12.0497 0.0264016 11.7608 0.00339386 11.4537C-0.0196139 11.1467 0.0749289 10.8421 0.269665 10.5958L2.96629 8.03825L11.0562 0.365549Z" fill="#D98E8E"/>
</svg>
