<svg width="21" height="23" viewBox="0 0 21 23" fill="none" xmlns="http://www.w3.org/2000/svg">
<path d="M10.5 23C12.1556 23 13.4986 21.713 13.4986 20.125H7.50142C7.50142 21.713 8.84438 23 10.5 23ZM20.5964 16.2747C19.6908 15.3422 17.9962 13.9393 17.9962 9.34375C17.9962 5.85332 15.4425 3.05918 11.9991 2.37367V1.4375C11.9991 0.64373 11.3278 0 10.5 0C9.67219 0 9.00094 0.64373 9.00094 1.4375V2.37367C5.55752 3.05918 3.00377 5.85332 3.00377 9.34375C3.00377 13.9393 1.30925 15.3422 0.403625 16.2747C0.122376 16.5645 -0.00231133 16.9108 3.24087e-05 17.25C0.00518864 17.9867 0.608468 18.6875 1.50472 18.6875H19.4953C20.3915 18.6875 20.9953 17.9867 21 17.25C21.0023 16.9108 20.8776 16.564 20.5964 16.2747Z" fill="#947256"/>
</svg>
