<svg width="32" height="25" viewBox="0 0 32 25" fill="none" xmlns="http://www.w3.org/2000/svg">
<path d="M31.9227 9.07399L30.056 3.8676C29.8976 3.4271 29.6244 3.0498 29.2716 2.78457C28.9188 2.51935 28.5027 2.37843 28.0773 2.38006H23.4667V1.19003C23.4667 0.874416 23.3543 0.571727 23.1542 0.348552C22.9542 0.125378 22.6829 0 22.4 0H2.13333C1.56754 0 1.02492 0.250756 0.624839 0.697104C0.224761 1.14345 0 1.74883 0 2.38006V19.0405C0 19.6717 0.224761 20.2771 0.624839 20.7235C1.02492 21.1698 1.56754 21.4206 2.13333 21.4206H4.4C4.63499 22.4445 5.16875 23.352 5.91713 24.0001C6.66551 24.6482 7.58595 25 8.53333 25C9.48071 25 10.4012 24.6482 11.1495 24.0001C11.8979 23.352 12.4317 22.4445 12.6667 21.4206H19.3333C19.5683 22.4445 20.1021 23.352 20.8505 24.0001C21.5988 24.6482 22.5193 25 23.4667 25C24.414 25 25.3345 24.6482 26.0829 24.0001C26.8312 23.352 27.365 22.4445 27.6 21.4206H29.8667C30.4325 21.4206 30.9751 21.1698 31.3752 20.7235C31.7752 20.2771 32 19.6717 32 19.0405V9.52025C32.0004 9.36732 31.9741 9.21576 31.9227 9.07399ZM23.4667 4.76013H28.0773L29.3573 8.33022H23.4667V4.76013ZM2.13333 2.38006H21.3333V11.9003H2.13333V2.38006ZM8.53333 22.6106C8.1114 22.6106 7.69894 22.471 7.34812 22.2095C6.99729 21.948 6.72386 21.5763 6.56239 21.1414C6.40092 20.7065 6.35868 20.2279 6.44099 19.7662C6.52331 19.3045 6.72649 18.8804 7.02484 18.5476C7.32319 18.2147 7.70331 17.988 8.11714 17.8962C8.53097 17.8044 8.95991 17.8515 9.34972 18.0316C9.73954 18.2118 10.0727 18.5168 10.3071 18.9082C10.5415 19.2996 10.6667 19.7598 10.6667 20.2305C10.6667 20.8618 10.4419 21.4671 10.0418 21.9135C9.64175 22.3598 9.09913 22.6106 8.53333 22.6106ZM19.3333 19.0405H12.6667C12.4317 18.0166 11.8979 17.109 11.1495 16.4609C10.4012 15.8129 9.48071 15.4611 8.53333 15.4611C7.58595 15.4611 6.66551 15.8129 5.91713 16.4609C5.16875 17.109 4.63499 18.0166 4.4 19.0405H2.13333V14.2804H21.3333V16.1115C20.8428 16.4278 20.4135 16.8496 20.0702 17.3524C19.7269 17.8552 19.4764 18.4289 19.3333 19.0405ZM23.4667 22.6106C23.0447 22.6106 22.6323 22.471 22.2814 22.2095C21.9306 21.948 21.6572 21.5763 21.4957 21.1414C21.3343 20.7065 21.292 20.2279 21.3743 19.7662C21.4566 19.3045 21.6598 18.8804 21.9582 18.5476C22.2565 18.2147 22.6366 17.988 23.0505 17.8962C23.4643 17.8044 23.8932 17.8515 24.2831 18.0316C24.6729 18.2118 25.0061 18.5168 25.2405 18.9082C25.4749 19.2996 25.6 19.7598 25.6 20.2305C25.6 20.8618 25.3752 21.4671 24.9752 21.9135C24.5751 22.3598 24.0325 22.6106 23.4667 22.6106ZM29.8667 19.0405H27.6C27.3622 18.0191 26.8274 17.1145 26.0795 16.4685C25.3315 15.8224 24.4126 15.4714 23.4667 15.4704V10.7103H29.8667V19.0405Z" fill="#D98E8E"/>
</svg>
