<svg width="28" height="29" viewBox="0 0 28 29" fill="none" xmlns="http://www.w3.org/2000/svg">
<path d="M19.1417 2H10.9131C9.09499 2.00072 7.35158 2.73269 6.06623 4.03498C4.78088 5.33727 4.05882 7.10324 4.05882 8.94459V20.0554C4.05882 23.8905 7.1277 27 10.9144 27H19.143C22.9298 27 26 23.8919 26 20.0554V8.94595C26 5.11081 22.9311 2.00135 19.143 2.00135M2 9.63919H6.11364M2 19.3608H6.11364M20.2305 20.9122C20.2305 18.6784 17.7714 16.8635 15.5671 16.8635C13.3615 16.8635 10.9038 18.6784 10.9038 20.9108M15.5671 13.6459C15.9786 13.6459 16.3859 13.5639 16.7661 13.4044C17.1462 13.245 17.4915 13.0112 17.7824 12.7166C18.0734 12.422 18.3041 12.0722 18.4616 11.6872C18.619 11.3023 18.7001 10.8897 18.7001 10.473C18.7001 10.0563 18.619 9.64369 18.4616 9.25873C18.3041 8.87377 18.0734 8.52398 17.7824 8.22934C17.4915 7.9347 17.1462 7.70099 16.7661 7.54153C16.3859 7.38207 15.9786 7.3 15.5671 7.3C14.7362 7.3 13.9394 7.63429 13.3518 8.22934C12.7643 8.82439 12.4342 9.63145 12.4342 10.473C12.4342 11.3145 12.7643 12.1216 13.3518 12.7166C13.9394 13.3117 14.7362 13.6459 15.5671 13.6459Z" stroke="#D98E8E" stroke-width="3" stroke-linecap="round" stroke-linejoin="round"/>
</svg>
