<svg width="39" height="38" viewBox="0 0 39 38" fill="none" xmlns="http://www.w3.org/2000/svg">
<ellipse cx="19.5" cy="19" rx="19.5" ry="19" fill="#D9D9D9" fill-opacity="0.5"/>
<path fill-rule="evenodd" clip-rule="evenodd" d="M14.6088 10.3089C15.5349 8.35362 17.5261 7 19.8352 7C22.1443 7 24.1355 8.35362 25.0615 10.3089C25.1538 10.3049 25.2467 10.3028 25.3399 10.3028C28.8361 10.3028 31.6703 13.1371 31.6703 16.6333C31.6703 19.034 30.3341 21.121 28.3675 22.1939V25.4981C28.3675 26.4873 28.3676 27.3121 28.2795 27.967C28.1866 28.6581 27.9822 29.2822 27.4807 29.7835C26.9793 30.285 26.3553 30.4895 25.6641 30.5824C25.0093 30.6705 24.1845 30.6703 23.1953 30.6703H16.4751C15.4859 30.6703 14.6611 30.6705 14.0062 30.5824C13.3151 30.4895 12.6911 30.285 12.1896 29.7835C11.6882 29.2822 11.4837 28.6581 11.3908 27.967C11.3028 27.3121 11.3028 26.4873 11.3028 25.4981V22.1939C9.33623 21.121 8 19.034 8 16.6333C8 13.1371 10.8342 10.3028 14.3304 10.3028C14.4237 10.3028 14.5165 10.3049 14.6088 10.3089ZM14.1131 11.9592C11.6299 12.0727 9.65142 14.122 9.65142 16.6333C9.65142 18.5507 10.8049 20.2006 12.4591 20.9233C12.7599 21.0547 12.9543 21.3518 12.9543 21.68V24.6151H26.7161V21.68C26.7161 21.3518 26.9104 21.0547 27.2112 20.9233C28.8655 20.2006 30.0189 18.5507 30.0189 16.6333C30.0189 14.122 28.0405 12.0727 25.5572 11.9592C25.5954 12.2276 25.6151 12.5016 25.6151 12.78V13.3304C25.6151 13.7865 25.2454 14.1561 24.7894 14.1561C24.3334 14.1561 23.9637 13.7865 23.9637 13.3304V12.78C23.9637 12.3144 23.887 11.8685 23.7462 11.4532C23.1933 9.82285 21.65 8.65142 19.8352 8.65142C18.0204 8.65142 16.4771 9.82285 15.9242 11.4532C15.7834 11.8685 15.7066 12.3144 15.7066 12.78V13.3304C15.7066 13.7865 15.3369 14.1561 14.8809 14.1561C14.4249 14.1561 14.0552 13.7865 14.0552 13.3304V12.78C14.0552 12.5016 14.0749 12.2276 14.1131 11.9592ZM26.7141 26.2666H12.9563C12.9609 26.8934 12.9764 27.3665 13.0275 27.7469C13.0958 28.255 13.2139 28.4724 13.3573 28.6159C13.5008 28.7593 13.7182 28.8773 14.2263 28.9457C14.7581 29.0172 15.471 29.0189 16.5323 29.0189H23.138C24.1993 29.0189 24.9123 29.0172 25.4441 28.9457C25.9521 28.8773 26.1696 28.7593 26.313 28.6159C26.4565 28.4724 26.5745 28.255 26.6429 27.7469C26.694 27.3665 26.7095 26.8934 26.7141 26.2666ZM22.317 15.1774C23.3444 15.5376 23.9637 16.5265 23.9637 17.7344C23.9637 18.5821 23.478 19.3321 23.0005 19.8843C22.5014 20.4613 21.8839 20.9668 21.3774 21.3385C21.3517 21.3573 21.3259 21.3764 21.2998 21.3958C20.9131 21.6817 20.4729 22.0071 19.8352 22.0071C19.1974 22.0071 18.7572 21.6817 18.3706 21.3958C18.3445 21.3764 18.3186 21.3573 18.293 21.3385C17.7864 20.9668 17.1689 20.4613 16.6698 19.8842C16.1924 19.3321 15.7066 18.5821 15.7066 17.7344C15.7066 16.5266 16.3258 15.5376 17.3533 15.1774C18.1562 14.8959 19.0466 15.0548 19.8352 15.574C20.6238 15.0548 21.5141 14.8959 22.317 15.1774ZM21.7707 16.7359C21.4952 16.6392 20.9848 16.67 20.4062 17.224C20.087 17.5298 19.5834 17.5298 19.2641 17.224C18.6856 16.67 18.1752 16.6392 17.8996 16.7359C17.6472 16.8243 17.358 17.1003 17.358 17.7344C17.358 17.9707 17.5135 18.3351 17.919 18.8039C18.3028 19.2478 18.8097 19.6694 19.2698 20.007C19.519 20.1898 19.6372 20.274 19.7318 20.324C19.7917 20.3556 19.8083 20.3557 19.8352 20.3557C19.862 20.3557 19.8787 20.3556 19.9385 20.324C20.0331 20.274 20.1514 20.1898 20.4005 20.007C20.8606 19.6694 21.3676 19.2478 21.7514 18.8039C22.1568 18.3352 22.3123 17.9707 22.3123 17.7344C22.3123 17.1003 22.0232 16.8243 21.7707 16.7359Z" fill="#D98E8E"/>
</svg>
