<svg width="39" height="38" viewBox="0 0 39 38" fill="none" xmlns="http://www.w3.org/2000/svg">
<ellipse cx="19.5" cy="19" rx="19.5" ry="19" fill="#D9D9D9" fill-opacity="0.5"/>
<path d="M19.4926 29.0456C19.4898 26.8396 20.1669 24.8866 21.5239 23.1866C22.8809 21.4866 24.6053 20.3815 26.697 19.8711C27.0367 19.7831 27.3721 19.7522 27.7034 19.7784C28.0346 19.8046 28.3252 19.9397 28.5752 20.1838C28.7901 20.4111 28.9113 20.6824 28.9389 20.9975C28.9665 21.3126 28.9354 21.619 28.8457 21.9167C28.3475 23.9833 27.2277 25.6875 25.4861 27.0294C23.7445 28.3713 21.7467 29.0434 19.4926 29.0456ZM22.1183 26.4948C23.1372 26.1259 24.0306 25.5645 24.7987 24.8107C25.5667 24.0569 26.1379 23.1807 26.5122 22.1823C25.4933 22.5513 24.5998 23.1127 23.8318 23.8665C23.0637 24.6203 22.4926 25.4964 22.1183 26.4948ZM19.4927 29.0718C19.4898 26.8658 18.8078 24.9146 17.4465 23.2181C16.0851 21.5215 14.358 20.4208 12.2649 19.9157C11.925 19.8286 11.5898 19.7982 11.2594 19.8245C10.9289 19.8509 10.6383 19.9871 10.3875 20.2332C10.1732 20.4611 10.053 20.7326 10.027 21.0478C10.0009 21.363 10.0324 21.6693 10.1215 21.9668C10.6249 24.0321 11.7494 25.7335 13.4951 27.071C15.2409 28.4084 17.24 29.0754 19.4927 29.0718ZM16.8605 26.5015C15.8406 26.1352 14.9457 25.576 14.1758 24.8242C13.4058 24.0723 12.8324 23.1977 12.4556 22.2002C13.4755 22.5666 14.3703 23.1257 15.1403 23.8775C15.9103 24.6294 16.4837 25.5041 16.8605 26.5015ZM19.4753 15.4158C19.7793 15.4154 20.0342 15.3142 20.2399 15.1123C20.4457 14.9103 20.548 14.6609 20.547 14.3639C20.5466 14.0663 20.4432 13.8171 20.237 13.6164C20.0307 13.4157 19.7759 13.3152 19.4726 13.3148C19.1686 13.3152 18.914 13.4164 18.709 13.6184C18.5039 13.8203 18.4013 14.0697 18.4009 14.3667C18.4013 14.6643 18.5046 14.9138 18.7109 15.1153C18.9172 15.3167 19.172 15.4169 19.4753 15.4158ZM19.4833 21.7186C18.7858 21.7195 18.155 21.5322 17.5908 21.1569C17.0267 20.7815 16.6194 20.2873 16.3689 19.6741C16.2795 19.6742 16.199 19.6789 16.1275 19.6881C16.056 19.6973 15.9755 19.7016 15.8861 19.701C14.9562 19.7022 14.1599 19.3793 13.4974 18.7324C12.8349 18.0854 12.503 17.3067 12.5019 16.3963C12.5014 16.0287 12.5636 15.6739 12.6883 15.332C12.8131 14.9901 13.0004 14.6705 13.2504 14.3732C13.0176 14.0759 12.8383 13.7564 12.7127 13.4148C12.5871 13.0733 12.524 12.719 12.5236 12.352C12.5224 11.4416 12.848 10.6621 13.5002 10.0135C14.1525 9.36486 14.9433 9.03996 15.8725 9.03878C15.962 9.03867 16.0424 9.04312 16.114 9.05213C16.1855 9.06114 16.266 9.06524 16.3554 9.06443C16.605 8.45134 17.0114 7.9564 17.5746 7.57962C18.1378 7.20283 18.7678 7.01365 19.4646 7.01206C20.162 7.01117 20.7929 7.19876 21.357 7.5748C21.9212 7.95085 22.3285 8.44475 22.5789 9.05651C22.6684 9.05639 22.7488 9.05209 22.8204 9.04359C22.8919 9.0351 22.9723 9.03045 23.0618 9.02963C23.9917 9.02845 24.7837 9.35133 25.4376 9.99829C26.0915 10.6452 26.4187 11.4239 26.4192 12.3343C26.4196 12.702 26.3621 13.0564 26.2467 13.3976C26.1312 13.7388 25.9482 14.0587 25.6974 14.3574C25.9303 14.6547 26.1096 14.9742 26.2352 15.3158C26.3608 15.6574 26.4238 16.0117 26.4243 16.3786C26.4255 17.289 26.0999 18.0685 25.4476 18.7171C24.7953 19.3658 24.0046 19.6907 23.0753 19.6918C22.9859 19.692 22.9054 19.6879 22.8339 19.6795C22.7623 19.6712 22.6819 19.6668 22.5924 19.6662C22.3429 20.2793 21.9368 20.7746 21.3743 21.1521C20.8118 21.5295 20.1815 21.7184 19.4833 21.7186ZM23.0727 17.5909C23.4125 17.5905 23.7031 17.4721 23.9446 17.2358C24.1861 16.9995 24.3062 16.7147 24.3051 16.3813C24.3048 16.1362 24.2376 15.922 24.1036 15.7387C23.9696 15.5554 23.7949 15.411 23.5794 15.3055L22.64 14.8603C22.6045 15.0529 22.551 15.2413 22.4797 15.4256C22.4084 15.6099 22.3282 15.7805 22.239 15.9375C22.1497 16.0952 22.0426 16.2441 21.9176 16.3844C21.7926 16.5246 21.6587 16.6561 21.5157 16.7788L22.3749 17.3817C22.4644 17.4516 22.5675 17.504 22.6842 17.5389C22.8008 17.5738 22.9303 17.5911 23.0727 17.5909ZM22.6387 13.8623L23.577 13.4147C23.7915 13.3094 23.9612 13.1603 24.0861 12.9676C24.2111 12.7748 24.2734 12.5647 24.2731 12.3371C24.2727 12.0044 24.1561 11.7202 23.9233 11.4845C23.6905 11.2488 23.4042 11.1308 23.0644 11.1306C22.9214 11.1307 22.7962 11.1484 22.6889 11.1836C22.5817 11.2187 22.4745 11.2714 22.3672 11.3415L21.4828 11.9467C21.626 12.0691 21.7649 12.2002 21.8996 12.3401C22.0343 12.48 22.1461 12.6286 22.235 12.7861C22.3246 12.9436 22.4053 13.1143 22.477 13.2984C22.5488 13.4825 22.6027 13.6705 22.6387 13.8623ZM18.3703 11.4254C18.5491 11.3552 18.7279 11.3024 18.9067 11.2672C19.0854 11.2319 19.2732 11.2142 19.4699 11.2139C19.6666 11.2137 19.8544 11.2309 20.0333 11.2657C20.2122 11.3005 20.3911 11.3528 20.57 11.4226L20.7027 10.2669C20.7381 9.95175 20.6261 9.68052 20.3669 9.45325C20.1076 9.22598 19.8078 9.11256 19.4672 9.11299C19.1275 9.11342 18.8282 9.22761 18.5696 9.45554C18.3109 9.68347 18.1993 9.95498 18.2347 10.2701L18.3703 11.4254ZM19.4806 19.6176C19.8204 19.6172 20.12 19.503 20.3794 19.2751C20.6388 19.0472 20.75 18.7756 20.7131 18.4606L20.5775 17.3052C20.3988 17.3755 20.22 17.4282 20.0412 17.4635C19.8624 17.4987 19.6747 17.5165 19.4779 17.5167C19.2812 17.517 19.0934 17.4997 18.9145 17.4649C18.7357 17.4301 18.5568 17.3778 18.3778 17.308L18.2452 18.4637C18.2098 18.7789 18.3221 19.0501 18.5821 19.2774C18.842 19.5046 19.1415 19.6181 19.4806 19.6176ZM16.3079 13.8704C16.3434 13.6777 16.3968 13.4896 16.4681 13.3061C16.5394 13.1225 16.6197 12.9515 16.7089 12.7931C16.7981 12.6354 16.9052 12.4865 17.0302 12.3463C17.1552 12.2061 17.2892 12.0746 17.4321 11.9518L16.5729 11.3489C16.4834 11.279 16.3804 11.2266 16.2637 11.1917C16.1471 11.1569 16.0176 11.1395 15.8752 11.1397C15.5354 11.1401 15.2451 11.2589 15.0044 11.4959C14.7636 11.7329 14.6431 12.0174 14.6428 12.3493C14.6431 12.5769 14.7106 12.7869 14.8453 12.9793C14.98 13.1718 15.1544 13.3203 15.3684 13.4251L16.3079 13.8704ZM15.8834 17.5738C16.0265 17.5736 16.1516 17.5602 16.2589 17.5334C16.3662 17.5067 16.4734 17.4498 16.5806 17.3628L17.4651 16.7839C17.3219 16.6616 17.1833 16.5304 17.0493 16.3905C16.9154 16.2507 16.8032 16.102 16.7129 15.9445C16.6233 15.7871 16.5426 15.6163 16.4708 15.4322C16.3991 15.2481 16.3452 15.0602 16.3092 14.8683L15.3708 15.316C15.1564 15.4213 14.9867 15.5703 14.8617 15.7631C14.7368 15.9558 14.6745 16.166 14.6747 16.3936C14.6931 16.7262 14.8143 17.0062 15.0385 17.2335C15.2627 17.4608 15.5443 17.5742 15.8834 17.5738Z" fill="#D98E8E"/>
</svg>
