<svg width="39" height="38" viewBox="0 0 39 38" fill="none" xmlns="http://www.w3.org/2000/svg">
<ellipse cx="19.5" cy="19" rx="19.5" ry="19" fill="#D9D9D9" fill-opacity="0.5"/>
<path d="M8.33325 30.3333V11.6667H22.4499C22.3721 12.0556 22.3333 12.4444 22.3333 12.8333C22.3333 13.2222 22.3721 13.6111 22.4499 14H10.6666L19.9999 19.8333L24.2583 17.1792C24.5305 17.4319 24.8272 17.6509 25.1484 17.836C25.4696 18.0211 25.8049 18.1813 26.1541 18.3167L19.9999 22.1667L10.6666 16.3333V28H29.3333V18.55C29.7805 18.4528 30.1985 18.3167 30.5874 18.1417C30.9763 17.9667 31.336 17.7528 31.6666 17.5V30.3333H8.33325ZM28.1666 16.3333C27.1944 16.3333 26.368 15.9931 25.6874 15.3125C25.0069 14.6319 24.6666 13.8056 24.6666 12.8333C24.6666 11.8611 25.0069 11.0347 25.6874 10.3542C26.368 9.67361 27.1944 9.33333 28.1666 9.33333C29.1388 9.33333 29.9652 9.67361 30.6458 10.3542C31.3263 11.0347 31.6666 11.8611 31.6666 12.8333C31.6666 13.8056 31.3263 14.6319 30.6458 15.3125C29.9652 15.9931 29.1388 16.3333 28.1666 16.3333Z" fill="#D98E8E"/>
</svg>
