<svg width="42" height="41" viewBox="0 0 42 41" fill="none" xmlns="http://www.w3.org/2000/svg">
<path d="M22.939 4.0017e-05C22.1335 0.00324314 21.4242 0.406837 21.0054 1.01903L21.0001 1.02728C20.5731 0.412001 19.8643 0.0134931 19.061 0.0134931C17.7727 0.0134931 16.7273 1.03861 16.7195 2.30613V2.30681C16.7195 5.74896 21.0001 6.90241 21.0001 6.90241C21.0001 6.90241 25.2806 5.749 25.2806 2.30681C25.2806 1.03277 24.2323 0 22.9391 0L22.939 4.0017e-05ZM42 41H0V38.2967H42V41ZM3.878 26.222H38.122V41H3.878V26.222ZM35.378 28.9253H6.62196V38.2966H35.378L35.378 28.9253ZM9.12806 15.8954H32.872V28.9433H9.12806V15.8954ZM30.1281 18.5987H11.8719V26.24H30.128L30.1281 18.5987ZM14.3781 8.99301H27.622V18.5988H14.3781V8.99301ZM24.8781 11.6963H17.1218V15.8954H24.8781V11.6963ZM12.9146 35.1266C12.7695 35.1266 12.6238 35.123 12.4774 35.1158C9.54584 34.9713 7.02735 33.3569 5.65191 31.0104L5.63046 30.9708L4.05726 28.2476L6.43534 26.9104L8.00845 29.6317C8.99793 31.3143 10.8169 32.428 12.8999 32.428C14.7804 32.428 16.4457 31.5204 17.4691 30.1256L17.4805 30.1093L19.8749 26.7969L22.1103 28.3648L19.7139 31.6809C18.1826 33.7775 15.7127 35.1267 12.923 35.1267H12.914H12.9145L12.9146 35.1266ZM29.0853 35.1266H29.0731C26.282 35.1266 23.8113 33.7759 22.2975 31.7017L22.2804 31.6773L19.8823 28.3576L22.1177 26.7897L24.514 30.1057C25.5488 31.5158 27.2136 32.4228 29.0933 32.4228C31.1771 32.4228 32.9967 31.3082 33.9714 29.6512L33.9859 29.6245L35.559 26.9049L37.9371 28.2422L36.3639 30.9635C34.9671 33.3497 32.4486 34.9641 29.5367 35.1078L29.517 35.1086C29.3761 35.123 29.2316 35.1266 29.0853 35.1266H29.0853ZM11.8719 17.2471H9.12806V13.7869H11.8719L11.8719 17.2471ZM6.62196 27.5736H3.87808V24.1314H6.62196V27.5736ZM32.8719 17.2471H30.128V13.787H32.8719V17.2471ZM38.122 27.5736H35.3781V24.1314H38.122L38.122 27.5736ZM25.8658 27.5736H23.122V24.1314H25.8658V27.5736ZM18.878 27.5736H16.1342V24.1314H18.878V27.5736ZM22.3719 10.3446H19.6281V5.17232H22.372L22.3719 10.3446Z" fill="#422813"/>
</svg>
