<svg width="30" height="30" viewBox="0 0 30 30" fill="none" xmlns="http://www.w3.org/2000/svg">
<path d="M12.9965 9.67436C11.8049 9.50132 10.6986 10.327 10.5256 11.5187C10.3526 12.7102 11.1783 13.8166 12.3699 13.9896C13.5615 14.1626 14.6678 13.3369 14.8408 12.1453C15.0139 10.9536 14.1881 9.84738 12.9965 9.67436ZM11.4284 11.6498C11.529 10.9567 12.1724 10.4765 12.8654 10.5771C13.5584 10.6778 14.0387 11.3211 13.9381 12.0142C13.8375 12.7072 13.194 13.1875 12.501 13.0868C11.8079 12.9862 11.3277 12.3427 11.4284 11.6498Z" fill="black"/>
<path d="M21.8231 4.8144L21.4069 3.18861C21.3518 2.96774 21.2272 2.76992 21.0557 2.63382C20.8855 2.49875 20.6358 2.40316 20.3635 2.47402C19.5402 2.67966 18.9675 3.37257 18.5853 4.18777C18.2729 3.91956 17.9346 3.67834 17.5733 3.4682C17.0786 3.17881 16.4588 3.3584 16.1766 3.82787L16.1753 3.83006C15.9678 4.17956 15.7933 4.54383 15.6522 4.91851C14.9342 4.39571 14.1113 4.07027 13.2997 4.27783C13.0309 4.34542 12.8528 4.54035 12.7623 4.74523C12.6723 4.94907 12.6564 5.18305 12.7081 5.404L13.2638 7.59075C13.1296 7.71502 13.0078 7.85774 12.9024 8.01829C12.8528 8.0937 12.8077 8.16496 12.767 8.23059C12.7381 8.18404 12.7068 8.13425 12.673 8.08134C11.9504 6.95152 10.4117 6.68189 9.34767 7.5063L9.34535 7.50809C8.30699 8.32331 8.16611 9.84508 9.04637 10.8359C9.10416 10.9009 9.15777 10.9598 9.20679 11.013C9.12703 11.0376 9.03835 11.0656 8.94088 11.0983C8.82155 11.1383 8.70797 11.1871 8.60054 11.2437L6.39731 9.93115L6.38993 9.92685C6.19283 9.81435 5.96398 9.76314 5.743 9.79134C5.52079 9.81982 5.28319 9.9352 5.14195 10.1738C4.70949 10.8974 4.79123 11.7856 5.09293 12.6272C4.66723 12.6689 4.24899 12.7408 4.01695 12.7808L3.93074 12.7955C3.70087 12.8342 3.4315 12.9422 3.2559 13.1872C3.06718 13.4504 3.05679 13.7718 3.16176 14.0793C3.17993 14.1326 3.20005 14.193 3.22205 14.2591C3.30895 14.5203 3.42544 14.8703 3.56744 15.213C2.6715 15.3458 1.83743 15.6977 1.40368 16.4326C1.2583 16.6735 1.27892 16.9401 1.36 17.1417C1.4417 17.3449 1.59592 17.5205 1.79199 17.6362L3.42133 18.6106C3.4005 18.6249 3.37985 18.6395 3.35935 18.6545L1.99597 19.6641C1.9236 19.7181 1.91952 19.8097 1.97353 19.8821C2.96118 21.0675 4.71628 21.3224 5.98356 20.4293C5.87995 20.6427 5.80599 20.8729 5.76749 21.1151L5.52366 22.7943C5.51186 22.8756 5.5736 22.9583 5.65616 22.961C7.22072 23.1053 8.66174 22.0055 8.89115 20.4257L8.88033 20.3662L18.8794 23.7141C19.5178 23.9279 19.9865 24.4758 20.0989 25.1396L20.6145 28.1843C20.6455 28.7326 21.2939 28.9651 21.7902 28.5947L26.0497 25.4153C26.5459 25.0449 26.5075 24.3572 25.9906 24.1715L23.1394 22.8427C22.5336 22.5604 22.1308 21.9696 22.0892 21.3027L21.4514 11.0918C21.4999 11.0339 21.5468 10.9744 21.5921 10.9131C23.1617 11.1265 24.6109 10.0612 24.9159 8.52908C24.9367 8.44914 24.8749 8.36643 24.7937 8.35463L23.1145 8.11081C22.877 8.07956 22.6409 8.08403 22.412 8.12025L22.4118 8.10991C23.6144 7.14623 23.8632 5.4011 23.0115 4.12284C22.9575 4.05047 22.8672 4.03736 22.7961 4.08235L21.8231 4.8144ZM13.5957 5.19288C13.5919 5.17572 13.5908 5.1602 13.5912 5.14711C14.0831 5.05422 14.7092 5.29358 15.4038 5.88371C16.1109 6.48449 16.7913 7.37028 17.3089 8.30294C17.4727 8.59786 17.7994 8.84465 18.1912 8.74616C18.5823 8.64781 18.7537 8.27648 18.7564 7.94087C18.765 6.8714 18.94 5.76324 19.2756 4.89388C19.6032 4.0455 20.0369 3.5361 20.5113 3.38027C20.5155 3.389 20.5192 3.39894 20.5219 3.40981L21.2573 6.28284L21.2576 6.28411C21.4482 7.04826 21.564 8.17892 21.4649 8.80567L21.4638 8.81372C21.2466 10.3654 20.2707 11.2504 18.9104 11.6005C18.5916 11.6798 18.2774 11.7201 17.9724 11.7209C17.6557 11.3237 17.2207 11.0282 16.7412 10.9115C16.6394 10.8868 16.5452 10.8662 16.459 10.8489L16.4949 10.8095C17.3849 9.83363 17.2638 8.29674 16.2288 7.47705C15.5942 6.97575 14.7857 6.86706 14.0817 7.10498L13.5957 5.19288ZM10.8383 15.4812C10.8297 15.8274 10.8984 16.1557 11.0281 16.4507C10.9492 16.8511 10.7939 17.2493 10.5665 17.6352C9.84403 18.8398 8.71798 19.5237 7.1686 19.2906L7.16057 19.2895C6.53151 19.2062 5.48052 18.7735 4.80213 18.3734L4.80098 18.3728L2.25888 16.8524L2.25578 16.8506C2.2461 16.845 2.23765 16.8386 2.23046 16.8321C2.51478 16.4216 3.12652 16.1506 4.03302 16.0779C4.96163 16.0034 6.07336 16.1507 7.10084 16.4464C7.44355 16.5466 7.8258 16.4483 8.01707 16.1204C8.20652 15.7956 8.1087 15.416 7.86126 15.1627C7.11436 14.4011 6.45802 13.4964 6.08317 12.6475C5.71497 11.8138 5.66357 11.1455 5.89253 10.7003C5.9052 10.7036 5.91974 10.7092 5.93514 10.7176L7.86321 11.8662C7.37405 12.5051 7.2369 13.389 7.59115 14.1866C8.12983 15.3932 9.58092 15.8957 10.7486 15.2562L10.8495 15.2008C10.8449 15.2866 10.8409 15.3807 10.8383 15.4812ZM16.3962 5.55837C16.5329 5.12169 16.7208 4.69841 16.9588 4.29719C16.9927 4.24181 17.064 4.22708 17.1127 4.25564L17.1141 4.25643C17.5261 4.49603 17.9037 4.78226 18.2409 5.10711C18.0253 5.83432 17.9004 6.64229 17.8591 7.43629C17.4397 6.75202 16.9385 6.09645 16.3962 5.55837ZM4.53569 15.1466C4.35923 14.7824 4.21318 14.3456 4.09374 13.9886C4.06979 13.917 4.04692 13.8486 4.02509 13.7846C4.01424 13.7528 4.00987 13.7304 4.0082 13.7161C4.02338 13.7092 4.04765 13.7009 4.08234 13.6951L4.16794 13.6805C4.48183 13.627 5.03325 13.5329 5.49176 13.5115C5.85308 14.1828 6.33796 14.8477 6.87332 15.443C6.10172 15.257 5.29304 15.1471 4.53569 15.1466ZM15.6631 8.19271C16.2812 8.68244 16.3562 9.6077 15.8209 10.1947C15.7849 10.2342 15.7498 10.2724 15.716 10.3093C15.582 10.4554 15.4675 10.5802 15.3945 10.6747C15.3525 10.7291 15.2824 10.8246 15.2474 10.9424C15.2276 11.0094 15.2126 11.1039 15.2364 11.2116C15.2613 11.3246 15.3203 11.4132 15.3871 11.4764C15.4977 11.581 15.633 11.6176 15.6872 11.6319C15.7586 11.6507 15.8416 11.6653 15.9163 11.678L15.9677 11.6867C16.1175 11.712 16.299 11.7427 16.5255 11.7978C17.2311 11.9696 17.7675 12.8167 17.5191 13.5582L17.5183 13.5606C17.272 14.309 16.4279 14.6945 15.6953 14.394C15.5369 14.3291 15.4214 14.2768 15.3228 14.2323C15.2762 14.2112 15.2333 14.1919 15.1914 14.1737C15.1377 14.1503 15.0628 14.1186 14.9894 14.1004L14.9872 14.0999C14.9449 14.0893 14.702 14.0286 14.5031 14.2153C14.4047 14.3078 14.3689 14.4164 14.3554 14.4853C14.3423 14.5523 14.3442 14.611 14.3467 14.6462C14.3514 14.7151 14.3666 14.79 14.3777 14.8441L14.3914 14.9096C14.415 15.0218 14.4436 15.158 14.47 15.3384C14.5838 16.1192 14.0041 16.8387 13.2131 16.8974C12.4086 16.9531 11.7302 16.3072 11.7503 15.5041C11.7553 15.305 11.7659 15.1476 11.7752 15.0107C11.7788 14.9565 11.7823 14.9056 11.7851 14.8564C11.7895 14.7774 11.7932 14.6884 11.7875 14.6076C11.783 14.5446 11.7688 14.3873 11.6594 14.2505C11.5111 14.065 11.303 14.0416 11.1699 14.0577C11.0588 14.0713 10.9573 14.1145 10.8899 14.1455C10.7836 14.1947 10.6412 14.2733 10.4759 14.3648L10.4748 14.3654C10.4222 14.3946 10.3673 14.4249 10.3104 14.4561C9.61552 14.8366 8.74864 14.541 8.42469 13.8159C8.09514 13.0734 8.47161 12.2176 9.23066 11.9633C9.40612 11.9045 9.53423 11.8666 9.64764 11.833C9.71378 11.8135 9.77512 11.7953 9.83831 11.7753C9.90891 11.7528 9.99576 11.7235 10.0722 11.6835C10.1378 11.6492 10.294 11.5583 10.3614 11.3639C10.4336 11.1553 10.3537 10.9805 10.3108 10.9038C10.2655 10.8232 10.2037 10.7502 10.1556 10.6956C10.1113 10.6453 10.0568 10.5871 9.99935 10.5256L9.97012 10.4944C9.89968 10.419 9.81932 10.3324 9.72837 10.23C9.19864 9.63375 9.28228 8.71847 9.90753 8.22653C10.5468 7.7323 11.4705 7.89428 11.9045 8.57286C11.9769 8.68619 12.0372 8.78472 12.0896 8.87071L12.1035 8.89345C12.1489 8.96822 12.1921 9.0391 12.2301 9.0972C12.2683 9.15538 12.3229 9.23501 12.3911 9.30005C12.4588 9.36454 12.6201 9.48964 12.8515 9.45337C13.049 9.42241 13.1657 9.2891 13.2064 9.24062C13.2583 9.17871 13.3049 9.10475 13.3421 9.04357C13.3659 9.00472 13.3901 8.96408 13.4159 8.92069C13.4816 8.81021 13.5579 8.68182 13.6648 8.51925C14.1099 7.84177 15.0303 7.69301 15.6631 8.19271Z" fill="black"/>
</svg>
