<svg width="24" height="24" viewBox="0 0 24 24" fill="none" xmlns="http://www.w3.org/2000/svg">
<path fill-rule="evenodd" clip-rule="evenodd" d="M6.60881 3.30886C7.53491 1.35362 9.52608 0 11.8352 0C14.1443 0 16.1355 1.35362 17.0615 3.30886C17.1538 3.30486 17.2467 3.30284 17.3399 3.30284C20.8361 3.30284 23.6703 6.13707 23.6703 9.63328C23.6703 12.034 22.3341 14.121 20.3675 15.1939V18.4981C20.3675 19.4873 20.3676 20.3121 20.2795 20.967C20.1866 21.6581 19.9822 22.2822 19.4807 22.7835C18.9793 23.285 18.3553 23.4895 17.6641 23.5824C17.0093 23.6705 16.1845 23.6703 15.1953 23.6703H8.47509C7.48591 23.6703 6.66105 23.6705 6.00623 23.5824C5.31507 23.4895 4.69105 23.285 4.18961 22.7835C3.68816 22.2822 3.48375 21.6581 3.39081 20.967C3.30277 20.3121 3.30281 19.4873 3.30284 18.4981V15.1939C1.33623 14.121 0 12.034 0 9.63328C0 6.13707 2.83423 3.30284 6.33044 3.30284C6.42368 3.30284 6.51649 3.30486 6.60881 3.30886ZM6.11313 4.95921C3.62986 5.07274 1.65142 7.12196 1.65142 9.63328C1.65142 11.5507 2.80487 13.2006 4.45914 13.9233C4.75989 14.0547 4.95426 14.3518 4.95426 14.68V17.6151H18.7161V14.68C18.7161 14.3518 18.9104 14.0547 19.2112 13.9233C20.8655 13.2006 22.0189 11.5507 22.0189 9.63328C22.0189 7.12196 20.0405 5.07273 17.5572 4.95921C17.5954 5.22757 17.6151 5.50163 17.6151 5.77997V6.33044C17.6151 6.78646 17.2454 7.15615 16.7894 7.15615C16.3334 7.15615 15.9637 6.78646 15.9637 6.33044V5.77997C15.9637 5.31443 15.887 4.86852 15.7462 4.45317C15.1933 2.82285 13.65 1.65142 11.8352 1.65142C10.0204 1.65142 8.47708 2.82285 7.9242 4.45317C7.78336 4.86852 7.70662 5.31443 7.70662 5.77997V6.33044C7.70662 6.78646 7.33694 7.15615 6.88091 7.15615C6.42489 7.15615 6.0552 6.78646 6.0552 6.33044V5.77997C6.0552 5.50161 6.07493 5.22757 6.11313 4.95921ZM18.7141 19.2666H4.95625C4.96091 19.8934 4.97636 20.3665 5.02751 20.7469C5.09582 21.255 5.21386 21.4724 5.35734 21.6159C5.5008 21.7593 5.71824 21.8773 6.22628 21.9457C6.75808 22.0172 7.47101 22.0189 8.53233 22.0189H15.138C16.1993 22.0189 16.9123 22.0172 17.4441 21.9457C17.9521 21.8773 18.1696 21.7593 18.313 21.6159C18.4565 21.4724 18.5745 21.255 18.6429 20.7469C18.694 20.3665 18.7095 19.8934 18.7141 19.2666ZM14.317 8.1774C15.3444 8.53755 15.9637 9.52654 15.9637 10.7344C15.9637 11.5821 15.478 12.3321 15.0005 12.8843C14.5014 13.4613 13.8839 13.9668 13.3774 14.3385C13.3517 14.3573 13.3259 14.3764 13.2998 14.3958C12.9131 14.6817 12.4729 15.0071 11.8352 15.0071C11.1974 15.0071 10.7572 14.6817 10.3706 14.3958C10.3445 14.3764 10.3186 14.3573 10.293 14.3385C9.78642 13.9668 9.16889 13.4613 8.66984 12.8842C8.19236 12.3321 7.70662 11.5821 7.70662 10.7344C7.70662 9.52655 8.32585 8.53756 9.35326 8.1774C10.1562 7.89592 11.0466 8.05482 11.8352 8.57397C12.6238 8.05482 13.5141 7.89592 14.317 8.1774ZM13.7707 9.73589C13.4952 9.63922 12.9848 9.67005 12.4062 10.224C12.087 10.5298 11.5834 10.5298 11.2641 10.224C10.6856 9.67005 10.1752 9.63922 9.8996 9.73589C9.64715 9.82429 9.35804 10.1003 9.35804 10.7344C9.35804 10.9707 9.51352 11.3351 9.91897 11.8039C10.3028 12.2478 10.8097 12.6694 11.2698 13.007C11.519 13.1898 11.6372 13.274 11.7318 13.324C11.7917 13.3556 11.8083 13.3557 11.8352 13.3557C11.862 13.3557 11.8787 13.3556 11.9385 13.324C12.0331 13.274 12.1514 13.1898 12.4005 13.007C12.8606 12.6694 13.3676 12.2478 13.7514 11.8039C14.1568 11.3352 14.3123 10.9707 14.3123 10.7344C14.3123 10.1003 14.0232 9.82429 13.7707 9.73589Z" fill="black"/>
</svg>
