<svg width="19" height="14" viewBox="0 0 19 14" fill="none" xmlns="http://www.w3.org/2000/svg">
<path d="M18.6841 0.366794C18.8953 0.59205 19.0088 0.892275 18.9995 1.20145C18.9902 1.51063 18.8589 1.80344 18.6345 2.0155L6.3431 13.6404C6.09253 13.8772 5.75958 14.0062 5.41546 13.9998C5.07133 13.9934 4.74337 13.8521 4.50171 13.6062L0.347753 9.37554C0.237752 9.26709 0.150355 9.13775 0.0906525 8.99507C0.0309496 8.85239 0.000133918 8.69921 4.35515e-07 8.54446C-0.000133047 8.38971 0.0304183 8.23648 0.0898749 8.0937C0.149332 7.95091 0.236505 7.82142 0.346319 7.71278C0.456133 7.60413 0.586391 7.51849 0.729508 7.46085C0.872625 7.40321 1.02574 7.37473 1.17994 7.37705C1.33413 7.37937 1.48633 7.41246 1.62766 7.47438C1.76898 7.5363 1.89662 7.62583 2.00314 7.73773L5.4658 11.2638L17.0411 0.317022C17.2656 0.105039 17.5648 -0.00880179 17.8729 0.000531811C18.181 0.00986541 18.4728 0.14161 18.6841 0.366794Z" fill="#D98E8E"/>
</svg>
