<svg width="39" height="38" viewBox="0 0 39 38" fill="none" xmlns="http://www.w3.org/2000/svg">
<ellipse cx="19.5" cy="19" rx="19.5" ry="19" fill="#D9D9D9" fill-opacity="0.5"/>
<path d="M9.40992 10.0067C8.9714 10.0769 8.57872 10.3184 8.31825 10.6781C8.05779 11.0377 7.95087 11.4862 8.02104 11.9247C8.0912 12.3632 8.33269 12.7559 8.69238 13.0164C9.05207 13.2768 9.5005 13.3837 9.93901 13.3136H14.8993L15.1969 14.1403L16.5527 18.2738L17.9085 22.4074C18.0408 22.8373 18.603 23.2341 19.0329 23.2341H30.6069C31.0698 23.2341 31.5989 22.8373 31.7312 22.4074L34.4097 14.1403C34.542 13.7104 34.3436 13.3136 33.8806 13.3136H19.1982L17.9416 10.9326C17.8078 10.6593 17.6011 10.4283 17.3444 10.2649C17.0877 10.1016 16.7908 10.0122 16.4866 10.0067L9.87288 10.0067C9.77387 9.99776 9.67426 9.99776 9.57526 10.0067C9.50918 10.0027 9.44292 10.0027 9.37685 10.0067L9.40992 10.0067ZM19.8596 26.541C18.9337 26.541 18.2061 27.2685 18.2061 28.1944C18.2061 29.1203 18.9337 29.8478 19.8596 29.8478C20.7855 29.8478 21.513 29.1203 21.513 28.1944C21.513 27.2685 20.7855 26.541 19.8596 26.541ZM29.7801 26.541C28.8542 26.541 28.1267 27.2685 28.1267 28.1944C28.1267 29.1203 28.8542 29.8478 29.7801 29.8478C30.7061 29.8478 31.4336 29.1203 31.4336 28.1944C31.4336 27.2685 30.7061 26.541 29.7801 26.541Z" fill="#D98E8E"/>
</svg>
