<svg width="21" height="24" viewBox="0 0 21 24" fill="none" xmlns="http://www.w3.org/2000/svg">
<path d="M21 12.0003C21 11.3183 20.7447 10.6643 20.2903 10.182C19.8359 9.69982 19.2196 9.42891 18.5769 9.42891H11.3077V8.46465C12.001 8.27355 12.6149 7.84384 13.0534 7.24281C13.4919 6.64179 13.7301 5.90339 13.7308 5.14329C13.7308 2.14336 11.0613 0.22448 10.9483 0.144125C10.8155 0.0501508 10.6596 0 10.5 0C10.3404 0 10.1845 0.0501508 10.0517 0.144125C9.93865 0.22448 7.26923 2.14336 7.26923 5.14329C7.26991 5.90339 7.50814 6.64179 7.94662 7.24281C8.3851 7.84384 8.99905 8.27355 9.69231 8.46465V9.42891H2.42308C1.78044 9.42891 1.16412 9.69982 0.709703 10.182C0.255288 10.6643 0 11.3183 0 12.0003V14.4999C0.000828685 15.4349 0.283891 16.3451 0.807692 17.0969V21.4286C0.807692 22.1106 1.06298 22.7646 1.5174 23.2469C1.97181 23.7291 2.58813 24 3.23077 24H17.7692C18.4119 24 19.0282 23.7291 19.4826 23.2469C19.937 22.7646 20.1923 22.1106 20.1923 21.4286V17.0969C20.7161 16.3451 20.9992 15.4349 21 14.4999V12.0003ZM8.88461 5.14329C8.88461 3.6894 9.89423 2.52264 10.5 1.95158C11.1058 2.52264 12.1154 3.6894 12.1154 5.14329C12.1154 5.59794 11.9452 6.03397 11.6422 6.35545C11.3393 6.67693 10.9284 6.85754 10.5 6.85754C10.0716 6.85754 9.66069 6.67693 9.35775 6.35545C9.05481 6.03397 8.88461 5.59794 8.88461 5.14329ZM1.61538 12.0003C1.61538 11.773 1.70048 11.5549 1.85195 11.3942C2.00342 11.2335 2.20886 11.1432 2.42308 11.1432H18.5769C18.7911 11.1432 18.9966 11.2335 19.148 11.3942C19.2995 11.5549 19.3846 11.773 19.3846 12.0003V14.4999C19.3846 15.9195 18.3286 17.1044 17.0302 17.1419C16.7063 17.1517 16.3839 17.0924 16.0821 16.9676C15.7802 16.8428 15.5049 16.6551 15.2726 16.4154C15.0403 16.1758 14.8556 15.8892 14.7295 15.5725C14.6034 15.2558 14.5385 14.9155 14.5385 14.5716C14.5385 14.3443 14.4534 14.1263 14.3019 13.9656C14.1504 13.8048 13.945 13.7145 13.7308 13.7145C13.5166 13.7145 13.3111 13.8048 13.1596 13.9656C13.0082 14.1263 12.9231 14.3443 12.9231 14.5716C12.9231 15.2536 12.6678 15.9077 12.2134 16.3899C11.759 16.8721 11.1426 17.143 10.5 17.143C9.85736 17.143 9.24104 16.8721 8.78662 16.3899C8.33221 15.9077 8.07692 15.2536 8.07692 14.5716C8.07692 14.3443 7.99183 14.1263 7.84035 13.9656C7.68888 13.8048 7.48344 13.7145 7.26923 13.7145C7.05502 13.7145 6.84958 13.8048 6.69811 13.9656C6.54663 14.1263 6.46154 14.3443 6.46154 14.5716C6.46167 14.9155 6.39679 15.256 6.27075 15.5728C6.14471 15.8896 5.96006 16.1764 5.72774 16.4161C5.49541 16.6559 5.22013 16.8437 4.91818 16.9686C4.61622 17.0935 4.29374 17.1528 3.96981 17.143C2.67144 17.1044 1.61538 15.9195 1.61538 14.4999V12.0003ZM17.7692 22.2858H3.23077C3.01656 22.2858 2.81112 22.1955 2.65964 22.0347C2.50817 21.874 2.42308 21.656 2.42308 21.4286V18.4887C2.89586 18.716 3.40654 18.8413 3.92538 18.8573C4.46518 18.8751 5.00279 18.7769 5.50594 18.5687C6.00908 18.3605 6.46737 18.0464 6.85327 17.6455C7.00394 17.4897 7.14301 17.3217 7.26923 17.143C7.6454 17.6753 8.13318 18.1073 8.69394 18.4048C9.25471 18.7024 9.87305 18.8573 10.5 18.8573C11.127 18.8573 11.7453 18.7024 12.3061 18.4048C12.8668 18.1073 13.3546 17.6753 13.7308 17.143C13.8574 17.321 13.9968 17.4882 14.1477 17.6434C14.8991 18.4244 15.9098 18.8604 16.9615 18.8573H17.0766C17.5948 18.841 18.1048 18.7158 18.5769 18.4887V21.4286C18.5769 21.656 18.4918 21.874 18.3404 22.0347C18.1889 22.1955 17.9834 22.2858 17.7692 22.2858Z" fill="black"/>
</svg>
