<svg width="45" height="46" viewBox="0 0 45 46" fill="none" xmlns="http://www.w3.org/2000/svg">
<path d="M38.25 4.6H33.75V2.3C33.75 1.69 33.5129 1.10499 33.091 0.673654C32.669 0.242321 32.0967 0 31.5 0C30.9033 0 30.331 0.242321 29.909 0.673654C29.4871 1.10499 29.25 1.69 29.25 2.3V4.6H15.75V2.3C15.75 1.69 15.5129 1.10499 15.091 0.673654C14.669 0.242321 14.0967 0 13.5 0C12.9033 0 12.331 0.242321 11.909 0.673654C11.4871 1.10499 11.25 1.69 11.25 2.3V4.6H6.75C4.95979 4.6 3.2429 5.32696 1.97703 6.62096C0.711159 7.91496 0 9.67001 0 11.5V39.1C0 40.93 0.711159 42.685 1.97703 43.979C3.2429 45.273 4.95979 46 6.75 46H38.25C40.0402 46 41.7571 45.273 43.023 43.979C44.2888 42.685 45 40.93 45 39.1V11.5C45 9.67001 44.2888 7.91496 43.023 6.62096C41.7571 5.32696 40.0402 4.6 38.25 4.6ZM40.5 39.1C40.5 39.71 40.2629 40.295 39.841 40.7263C39.419 41.1577 38.8467 41.4 38.25 41.4H6.75C6.15326 41.4 5.58097 41.1577 5.15901 40.7263C4.73705 40.295 4.5 39.71 4.5 39.1V23H40.5V39.1ZM40.5 18.4H4.5V11.5C4.5 10.89 4.73705 10.305 5.15901 9.87365C5.58097 9.44232 6.15326 9.2 6.75 9.2H11.25V11.5C11.25 12.11 11.4871 12.695 11.909 13.1263C12.331 13.5577 12.9033 13.8 13.5 13.8C14.0967 13.8 14.669 13.5577 15.091 13.1263C15.5129 12.695 15.75 12.11 15.75 11.5V9.2H29.25V11.5C29.25 12.11 29.4871 12.695 29.909 13.1263C30.331 13.5577 30.9033 13.8 31.5 13.8C32.0967 13.8 32.669 13.5577 33.091 13.1263C33.5129 12.695 33.75 12.11 33.75 11.5V9.2H38.25C38.8467 9.2 39.419 9.44232 39.841 9.87365C40.2629 10.305 40.5 10.89 40.5 11.5V18.4Z" fill="black"/>
</svg>
