<svg width="39" height="38" viewBox="0 0 39 38" fill="none" xmlns="http://www.w3.org/2000/svg">
<ellipse cx="19.5" cy="19" rx="19.5" ry="19" fill="#D9D9D9" fill-opacity="0.5"/>
<path d="M19.3023 8C19.1708 8 19.0394 8.10513 18.9606 8.23655L16.49 12.9937C16.4374 13.1252 16.306 13.2303 16.1483 13.2303H12.4424C10.261 13.2303 8.5 14.9912 8.5 17.1727V28.7635C8.5 28.8949 8.60513 29 8.73655 29H29.2635C29.3949 29 29.5 28.8949 29.5 28.7635V13.4931C29.5 13.3354 29.3949 13.2566 29.2635 13.2566H27.1345C27.0031 13.2566 26.8717 13.1514 26.7929 13.02L24.3223 8.26283C24.2434 8.13141 24.1383 8.02628 23.9806 8.02628H19.2234L19.3023 8ZM12.495 15.8849C13.2309 15.8849 13.8091 16.4631 13.8091 17.199C13.8091 17.9349 13.2309 18.5131 12.495 18.5131C11.7591 18.5131 11.1809 17.9349 11.1809 17.199C11.1809 16.4631 11.7591 15.8849 12.495 15.8849ZM21.694 15.8849C24.5851 15.8849 26.9506 18.2503 26.9506 21.1414C26.9506 24.0325 24.5851 26.398 21.694 26.398C18.8029 26.398 16.4374 24.0325 16.4374 21.1414C16.4374 18.2503 18.8029 15.8849 21.694 15.8849ZM21.694 18.5131C20.2484 18.5131 19.0657 19.6959 19.0657 21.1414C19.0657 22.587 20.2484 23.7697 21.694 23.7697C23.1395 23.7697 24.3223 22.587 24.3223 21.1414C24.3223 19.6959 23.1395 18.5131 21.694 18.5131Z" fill="#D98E8E"/>
</svg>
