<svg width="39" height="38" viewBox="0 0 39 38" fill="none" xmlns="http://www.w3.org/2000/svg">
<ellipse cx="19.5" cy="19" rx="19.5" ry="19" fill="#D9D9D9" fill-opacity="0.5"/>
<path d="M11.0001 20.386V30.7189C11.0001 30.951 11.2013 31.1391 11.4495 31.1391H27.6271C27.8752 31.1391 28.0764 30.951 28.0764 30.7189V20.386C28.0764 20.2639 28.0196 20.1478 27.9208 20.068L19.832 13.5342C19.6633 13.3979 19.4133 13.3979 19.2445 13.5342L11.1557 20.068C11.0569 20.1478 11.0001 20.2639 11.0001 20.386Z" stroke="#D98E8E" stroke-width="1.5" stroke-miterlimit="10" stroke-linecap="round" stroke-linejoin="round"/>
<path d="M16.0225 14.2752V10.835V10.6643L19.228 8.46508C19.4074 8.34201 19.6692 8.34201 19.8485 8.46508L23.054 10.6643V10.835V14.2752" stroke="#D98E8E" stroke-width="1.5" stroke-miterlimit="10" stroke-linecap="round" stroke-linejoin="round"/>
<path d="M19.5383 8.37279V5" stroke="#D98E8E" stroke-width="1.5" stroke-miterlimit="10" stroke-linecap="round"/>
<path d="M21.2961 6.2648H17.7804" stroke="#D98E8E" stroke-width="1.5" stroke-miterlimit="10" stroke-linecap="round"/>
<path d="M17.0271 27.7423C17.0271 26.1188 18.7088 25.1598 19.3198 24.8649C19.4574 24.7985 19.6193 24.7985 19.7569 24.8649C20.3679 25.1598 22.0496 26.1188 22.0496 27.7423V30.7312C22.0496 30.9565 21.844 31.1391 21.5905 31.1391H17.4862C17.2326 31.1391 17.0271 30.9565 17.0271 30.7312V27.7423Z" stroke="#D98E8E" stroke-width="1.5" stroke-miterlimit="10" stroke-linecap="round"/>
<path d="M19.5383 22.2119L21.9839 19.5795L22.0627 19.4817C22.4748 18.9119 22.2587 18.1695 21.58 17.8235C20.9011 17.4775 20.0167 17.6589 19.6045 18.2287C19.5805 18.2619 19.5583 18.2962 19.5382 18.3313C19.1934 17.7307 18.3339 17.4786 17.6185 17.768C16.9032 18.0575 16.6028 18.779 16.9476 19.3794C16.9858 19.446 17.0312 19.5095 17.0833 19.5692L19.5383 22.2119Z" stroke="#D98E8E" stroke-width="1.5" stroke-linecap="round" stroke-linejoin="round"/>
</svg>
