<svg width="23" height="41" viewBox="0 0 23 41" fill="none" xmlns="http://www.w3.org/2000/svg">
<path d="M1.65216 23.7141V39.1151C1.65216 39.4611 1.88835 39.7415 2.17967 39.7415H21.1708C21.4621 39.7415 21.6983 39.4611 21.6983 39.1151V23.7141C21.6983 23.5321 21.6316 23.3591 21.5156 23.2401L12.0201 13.5015C11.822 13.2984 11.5285 13.2984 11.3304 13.5015L1.83482 23.2401C1.71884 23.3591 1.65216 23.5321 1.65216 23.7141Z" stroke="black" stroke-width="1.5" stroke-miterlimit="10" stroke-linecap="round" stroke-linejoin="round"/>
<path d="M7.54811 14.606V9.47842V9.22392L11.3111 5.94606C11.5216 5.76263 11.829 5.76263 12.0395 5.94606L15.8024 9.22392V9.47842V14.606" stroke="black" stroke-width="1.5" stroke-miterlimit="10" stroke-linecap="round" stroke-linejoin="round"/>
<path d="M11.6752 5.8085V0.781387" stroke="black" stroke-width="1.5" stroke-miterlimit="10" stroke-linecap="round"/>
<path d="M13.7388 2.66656H9.61166" stroke="black" stroke-width="1.5" stroke-miterlimit="10" stroke-linecap="round"/>
<path d="M8.72729 34.6786C8.72729 32.2587 10.7015 30.8293 11.4187 30.3899C11.5803 30.2909 11.7702 30.2909 11.9318 30.3899C12.6491 30.8293 14.6232 32.2587 14.6232 34.6786V39.1335C14.6232 39.4693 14.3819 39.7415 14.0843 39.7415H9.26618C8.96855 39.7415 8.72729 39.4693 8.72729 39.1335V34.6786Z" stroke="black" stroke-width="1.5" stroke-miterlimit="10" stroke-linecap="round"/>
<path d="M11.6754 26.4355L14.5462 22.512L14.6388 22.3662C15.1226 21.5169 14.8689 20.4104 14.0721 19.8947C13.2752 19.379 12.237 19.6493 11.7531 20.4986C11.7249 20.5482 11.6989 20.5992 11.6752 20.6515C11.2705 19.7564 10.2615 19.3806 9.4217 19.812C8.58195 20.2434 8.22931 21.3188 8.63407 22.2138C8.67893 22.3131 8.73229 22.4077 8.79343 22.4966L11.6754 26.4355Z" stroke="black" stroke-width="1.5" stroke-linecap="round" stroke-linejoin="round"/>
</svg>
