<svg width="39" height="39" viewBox="0 0 39 39" fill="none" xmlns="http://www.w3.org/2000/svg">
<circle cx="19.5" cy="19.5" r="19.5" fill="#EBEBEB"/>
<path d="M30 19.0003C30 18.3183 29.7447 17.6643 29.2903 17.182C28.8359 16.6998 28.2196 16.4289 27.5769 16.4289H20.3077V15.4646C21.001 15.2736 21.6149 14.8438 22.0534 14.2428C22.4919 13.6418 22.7301 12.9034 22.7308 12.1433C22.7308 9.14336 20.0613 7.22448 19.9483 7.14412C19.8155 7.05015 19.6596 7 19.5 7C19.3404 7 19.1845 7.05015 19.0517 7.14412C18.9387 7.22448 16.2692 9.14336 16.2692 12.1433C16.2699 12.9034 16.5081 13.6418 16.9466 14.2428C17.3851 14.8438 17.999 15.2736 18.6923 15.4646V16.4289H11.4231C10.7804 16.4289 10.1641 16.6998 9.7097 17.182C9.25529 17.6643 9 18.3183 9 19.0003V21.4999C9.00083 22.4349 9.28389 23.3451 9.80769 24.0969V28.4286C9.80769 29.1106 10.063 29.7646 10.5174 30.2469C10.9718 30.7291 11.5881 31 12.2308 31H26.7692C27.4119 31 28.0282 30.7291 28.4826 30.2469C28.937 29.7646 29.1923 29.1106 29.1923 28.4286V24.0969C29.7161 23.3451 29.9992 22.4349 30 21.4999V19.0003ZM17.8846 12.1433C17.8846 10.6894 18.8942 9.52264 19.5 8.95158C20.1058 9.52264 21.1154 10.6894 21.1154 12.1433C21.1154 12.5979 20.9452 13.034 20.6422 13.3554C20.3393 13.6769 19.9284 13.8575 19.5 13.8575C19.0716 13.8575 18.6607 13.6769 18.3578 13.3554C18.0548 13.034 17.8846 12.5979 17.8846 12.1433ZM10.6154 19.0003C10.6154 18.773 10.7005 18.5549 10.852 18.3942C11.0034 18.2335 11.2089 18.1432 11.4231 18.1432H27.5769C27.7911 18.1432 27.9966 18.2335 28.148 18.3942C28.2995 18.5549 28.3846 18.773 28.3846 19.0003V21.4999C28.3846 22.9195 27.3286 24.1044 26.0302 24.1419C25.7063 24.1517 25.3839 24.0924 25.0821 23.9676C24.7802 23.8428 24.5049 23.6551 24.2726 23.4154C24.0403 23.1758 23.8556 22.8892 23.7295 22.5725C23.6034 22.2558 23.5385 21.9155 23.5385 21.5716C23.5385 21.3443 23.4534 21.1263 23.3019 20.9656C23.1504 20.8048 22.945 20.7145 22.7308 20.7145C22.5166 20.7145 22.3111 20.8048 22.1596 20.9656C22.0082 21.1263 21.9231 21.3443 21.9231 21.5716C21.9231 22.2536 21.6678 22.9077 21.2134 23.3899C20.759 23.8721 20.1426 24.143 19.5 24.143C18.8574 24.143 18.241 23.8721 17.7866 23.3899C17.3322 22.9077 17.0769 22.2536 17.0769 21.5716C17.0769 21.3443 16.9918 21.1263 16.8404 20.9656C16.6889 20.8048 16.4834 20.7145 16.2692 20.7145C16.055 20.7145 15.8496 20.8048 15.6981 20.9656C15.5466 21.1263 15.4615 21.3443 15.4615 21.5716C15.4617 21.9155 15.3968 22.256 15.2708 22.5728C15.1447 22.8896 14.9601 23.1764 14.7277 23.4161C14.4954 23.6559 14.2201 23.8437 13.9182 23.9686C13.6162 24.0935 13.2937 24.1528 12.9698 24.143C11.6714 24.1044 10.6154 22.9195 10.6154 21.4999V19.0003ZM26.7692 29.2858H12.2308C12.0166 29.2858 11.8111 29.1955 11.6596 29.0347C11.5082 28.874 11.4231 28.656 11.4231 28.4286V25.4887C11.8959 25.716 12.4065 25.8413 12.9254 25.8573C13.4652 25.8751 14.0028 25.7769 14.5059 25.5687C15.0091 25.3605 15.4674 25.0464 15.8533 24.6455C16.0039 24.4897 16.143 24.3217 16.2692 24.143C16.6454 24.6753 17.1332 25.1073 17.6939 25.4048C18.2547 25.7024 18.873 25.8573 19.5 25.8573C20.127 25.8573 20.7453 25.7024 21.3061 25.4048C21.8668 25.1073 22.3546 24.6753 22.7308 24.143C22.8574 24.321 22.9968 24.4882 23.1477 24.6434C23.8991 25.4244 24.9098 25.8604 25.9615 25.8573H26.0766C26.5948 25.841 27.1048 25.7158 27.5769 25.4887V28.4286C27.5769 28.656 27.4918 28.874 27.3404 29.0347C27.1889 29.1955 26.9834 29.2858 26.7692 29.2858Z" fill="#D98E8E"/>
</svg>
