<svg width="21" height="21" viewBox="0 0 21 21" fill="none" xmlns="http://www.w3.org/2000/svg">
<rect width="21" height="21" rx="8" fill="#AFB148"/>
<path d="M7.94019 7.22661L3.58466 7.84347L3.50752 7.85881C3.39074 7.88909 3.28428 7.94911 3.19901 8.03273C3.11374 8.11635 3.05272 8.22058 3.02217 8.33477C2.99163 8.44896 2.99266 8.56903 3.02515 8.68271C3.05765 8.79639 3.12045 8.8996 3.20714 8.98182L6.36251 11.9821L5.61838 16.22L5.6095 16.2934C5.60236 16.4114 5.62744 16.5291 5.68218 16.6345C5.73692 16.7399 5.81935 16.8292 5.92104 16.8933C6.02272 16.9573 6.14001 16.9938 6.26089 16.999C6.38176 17.0042 6.50189 16.978 6.60895 16.9229L10.5044 14.9223L14.3909 16.9229L14.4591 16.9536C14.5718 16.997 14.6943 17.0103 14.814 16.9921C14.9337 16.974 15.0462 16.9251 15.1402 16.8504C15.2341 16.7757 15.306 16.678 15.3486 16.5672C15.3911 16.4565 15.4027 16.3366 15.3821 16.22L14.6373 11.9821L17.7941 8.98115L17.8473 8.92447C17.9234 8.83295 17.9732 8.72337 17.9918 8.6069C18.0104 8.49043 17.9971 8.37122 17.9532 8.26142C17.9093 8.15162 17.8363 8.05515 17.7418 7.98185C17.6473 7.90855 17.5346 7.86103 17.4152 7.84413L13.0596 7.22661L11.1126 3.37209C11.0563 3.26042 10.9691 3.16637 10.8608 3.10061C10.7526 3.03485 10.6277 3 10.5003 3C10.3728 3 10.2479 3.03485 10.1397 3.10061C10.0314 3.16637 9.94423 3.26042 9.88789 3.37209L7.94019 7.22661Z" fill="white"/>
</svg>
