<svg width="39" height="38" viewBox="0 0 39 38" fill="none" xmlns="http://www.w3.org/2000/svg">
<ellipse cx="19.5" cy="19" rx="19.5" ry="19" fill="#D9D9D9" fill-opacity="0.5"/>
<path d="M19.8494 6.01254C19.7153 6.03419 19.5828 6.06476 19.4528 6.10407C18.7646 6.25905 18.1514 6.64775 17.7175 7.20399C17.2836 7.76023 17.056 8.44965 17.0732 9.15488V15.2565C17.0732 16.0656 17.3946 16.8416 17.9667 17.4137C18.5389 17.9859 19.3149 18.3073 20.124 18.3073C20.9331 18.3073 21.7091 17.9859 22.2812 17.4137C22.8534 16.8416 23.1748 16.0656 23.1748 15.2565V9.15488C23.1896 8.72242 23.1122 8.29178 22.9477 7.89153C22.7833 7.49128 22.5356 7.13059 22.2211 6.8334C21.9066 6.5362 21.5325 6.30932 21.1236 6.16779C20.7147 6.02627 20.2803 5.97335 19.8494 6.01254ZM12.0393 12.2057C11.7236 12.3118 11.4513 12.5184 11.264 12.7938C11.0767 13.0693 10.9847 13.3985 11.0021 13.7311V15.2565C11.0021 19.7717 14.3275 23.4632 18.6291 24.2259V27.4597H17.1037C15.4257 27.4597 14.0529 28.8326 14.0529 30.5105H26.2866C26.2866 28.8326 24.9138 27.4597 23.2358 27.4597H21.7104V24.2259C26.0121 23.4937 29.3374 19.7717 29.3374 15.2565V13.7311C29.3374 13.3265 29.1767 12.9385 28.8907 12.6525C28.6046 12.3664 28.2166 12.2057 27.812 12.2057C27.4075 12.2057 27.0195 12.3664 26.7334 12.6525C26.4473 12.9385 26.2866 13.3265 26.2866 13.7311V15.2565C26.2866 18.6429 23.5714 21.3581 20.185 21.3581C16.7986 21.3581 14.0834 18.6429 14.0834 15.2565V13.7311C14.0871 13.5054 14.0407 13.2817 13.9474 13.0762C13.8542 12.8706 13.7166 12.6883 13.5444 12.5424C13.3722 12.3965 13.1698 12.2906 12.9517 12.2324C12.7337 12.1741 12.5054 12.165 12.2834 12.2057C12.2225 12.202 12.1613 12.202 12.1004 12.2057H12.0393Z" fill="#D98E8E"/>
</svg>
