<svg width="39" height="38" viewBox="0 0 39 38" fill="none" xmlns="http://www.w3.org/2000/svg">
<ellipse cx="19.5" cy="19" rx="19.5" ry="19" fill="#D9D9D9" fill-opacity="0.5"/>
<path d="M31.4186 6C17.407 6 14.6047 8.80233 14.6047 8.80233V20.2639C14.1843 20.1237 13.6799 20.0116 13.2035 20.0116C10.8776 20.0116 9 21.8892 9 24.2151C9 26.5411 10.8776 28.4186 13.2035 28.4186C15.5294 28.4186 17.407 26.5411 17.407 24.2151V13.0899C19.4527 12.4454 22.9836 11.8569 28.6163 11.6887V17.4615C28.196 17.3214 27.6915 17.2093 27.2151 17.2093C24.8892 17.2093 23.0116 19.0869 23.0116 21.4128C23.0116 23.7387 24.8892 25.6163 27.2151 25.6163C29.5411 25.6163 31.4186 23.7387 31.4186 21.4128V6Z" fill="#D98E8E"/>
</svg>
