<svg width="61" height="60" viewBox="0 0 61 60" fill="none" xmlns="http://www.w3.org/2000/svg">
<path d="M30.5478 18.0009V57M30.5478 18.0009C29.4502 13.5293 27.5604 9.70633 25.1247 7.0307C22.689 4.35506 19.8205 2.95089 16.8933 3.00131C14.8814 3.00131 12.952 3.79147 11.5293 5.19796C10.1067 6.60445 9.3075 8.51205 9.3075 10.5011C9.3075 12.4902 10.1067 14.3978 11.5293 15.8043C12.952 17.2108 14.8814 18.0009 16.8933 18.0009M30.5478 18.0009C31.6454 13.5293 33.5353 9.70633 35.971 7.0307C38.4067 4.35506 41.2752 2.95089 44.2023 3.00131C46.2142 3.00131 48.1437 3.79147 49.5663 5.19796C50.989 6.60445 51.7882 8.51205 51.7882 10.5011C51.7882 12.4902 50.989 14.3978 49.5663 15.8043C48.1437 17.2108 46.2142 18.0009 44.2023 18.0009M51.7882 30.0007V51.0001C51.7882 52.5914 51.1488 54.1175 50.0107 55.2427C48.8726 56.3679 47.329 57 45.7195 57H15.3762C13.7667 57 12.2231 56.3679 11.085 55.2427C9.94687 54.1175 9.3075 52.5914 9.3075 51.0001V30.0007M6.27316 18.0009H54.8225C56.4983 18.0009 57.8568 19.3441 57.8568 21.0009V27.0007C57.8568 28.6575 56.4983 30.0007 54.8225 30.0007H6.27316C4.59735 30.0007 3.23883 28.6575 3.23883 27.0007V21.0009C3.23883 19.3441 4.59735 18.0009 6.27316 18.0009Z" stroke="black" stroke-width="5" stroke-linecap="round" stroke-linejoin="round"/>
</svg>
