<svg width="29" height="28" viewBox="0 0 29 28" fill="none" xmlns="http://www.w3.org/2000/svg">
<path d="M18.6977 3.74535C17.6318 2.61982 16.1431 2 14.5 2C12.8481 2 11.3544 2.61607 10.2935 3.73463C9.22106 4.86552 8.69854 6.40247 8.82123 8.06211C9.06442 11.3364 11.6119 13.9999 14.5 13.9999C17.3881 13.9999 19.9312 11.3369 20.1782 8.06318C20.3025 6.41855 19.7767 4.8848 18.6977 3.74535ZM24.1398 25.9999H4.86013C4.60778 26.0031 4.35786 25.9512 4.12858 25.8481C3.89929 25.7449 3.69639 25.5931 3.53465 25.4036C3.17863 24.9874 3.03513 24.419 3.14139 23.8442C3.60366 21.336 5.04635 19.229 7.31391 17.7499C9.32842 16.4369 11.8802 15.7142 14.5 15.7142C17.1197 15.7142 19.6715 16.4374 21.686 17.7499C23.9536 19.2285 25.3963 21.3354 25.8586 23.8436C25.9648 24.4184 25.8213 24.9868 25.4653 25.4031C25.3036 25.5927 25.1007 25.7446 24.8714 25.8478C24.6422 25.9511 24.3922 26.003 24.1398 25.9999Z" fill="#3B3636"/>
</svg>
