<svg width="39" height="38" viewBox="0 0 39 38" fill="none" xmlns="http://www.w3.org/2000/svg">
<ellipse cx="19.5" cy="19" rx="19.5" ry="19" fill="#D9D9D9" fill-opacity="0.5"/>
<path d="M23.6882 7C22.1408 7 20.8057 7.82139 19.9865 9.0652C21.3519 10.3325 22.1711 12.0691 22.1711 14.0639C22.1711 14.7445 22.0801 15.3547 21.898 15.9648C22.4745 16.223 23.051 16.4107 23.6882 16.4107C26.2066 16.4107 28.2396 14.2986 28.2396 11.7171C28.2396 9.13561 26.2066 7.02347 23.6882 7.02347V7ZM14.5856 9.34682C12.0672 9.34682 10.0342 11.459 10.0342 14.0405C10.0342 16.622 12.0672 18.7341 14.5856 18.7341C17.104 18.7341 19.1369 16.622 19.1369 14.0405C19.1369 11.459 17.104 9.34682 14.5856 9.34682ZM28.9981 16.7628C27.6934 17.9596 25.9032 18.6872 23.8703 18.7341C24.6895 19.6259 25.2053 20.7054 25.2053 21.8788V23.4277H31.2738V19.532C31.2738 18.3117 30.3332 17.2556 28.9981 16.7393V16.7628ZM9.27567 19.1096C7.94061 19.6259 7 20.682 7 21.9023V25.798H22.1711V21.9023C22.1711 20.682 21.2305 19.6259 19.8955 19.1096C18.53 20.3534 16.6792 21.0809 14.5856 21.0809C12.4919 21.0809 10.6411 20.3299 9.27567 19.1096Z" fill="#D98E8E"/>
</svg>
