<svg width="44" height="37" viewBox="0 0 44 37" fill="none" xmlns="http://www.w3.org/2000/svg">
<g filter="url(#filter0_d_353_7)">
<path d="M4 14.5C4 6.49187 10.4919 0 18.5 0V0C26.5081 0 33 6.49187 33 14.5V14.5C33 22.5081 26.5081 29 18.5 29V29C10.4919 29 4 22.5081 4 14.5V14.5Z" fill="white"/>
</g>
<path d="M17.7958 25.1723C17.7958 25.6309 17.9696 26.0707 18.2789 26.3949C18.5881 26.7192 19.0076 26.9014 19.445 26.9014C19.8824 26.9014 20.3019 26.7192 20.6112 26.3949C20.9205 26.0707 21.0942 25.6309 21.0942 25.1723V17.6797H28.2408C28.6782 17.6797 29.0977 17.4976 29.407 17.1733C29.7163 16.849 29.8901 16.4093 29.8901 15.9507C29.8901 15.4921 29.7163 15.0523 29.407 14.7281C29.0977 14.4038 28.6782 14.2216 28.2408 14.2216H21.0942V6.72906C21.0942 6.27048 20.9205 5.83069 20.6112 5.50643C20.3019 5.18217 19.8824 5 19.445 5C19.0076 5 18.5881 5.18217 18.2789 5.50643C17.9696 5.83069 17.7958 6.27048 17.7958 6.72906V14.2216H10.6492C10.2118 14.2216 9.79233 14.4038 9.48304 14.7281C9.17376 15.0523 9 15.4921 9 15.9507C9 16.4093 9.17376 16.849 9.48304 17.1733C9.79233 17.4976 10.2118 17.6797 10.6492 17.6797H17.7958V25.1723Z" fill="#D98E8E"/>
<defs>
<filter id="filter0_d_353_7" x="0" y="0" width="37" height="37" filterUnits="userSpaceOnUse" color-interpolation-filters="sRGB">
<feFlood flood-opacity="0" result="BackgroundImageFix"/>
<feColorMatrix in="SourceAlpha" type="matrix" values="0 0 0 0 0 0 0 0 0 0 0 0 0 0 0 0 0 0 127 0" result="hardAlpha"/>
<feOffset dy="4"/>
<feGaussianBlur stdDeviation="2"/>
<feComposite in2="hardAlpha" operator="out"/>
<feColorMatrix type="matrix" values="0 0 0 0 0 0 0 0 0 0 0 0 0 0 0 0 0 0 0.25 0"/>
<feBlend mode="normal" in2="BackgroundImageFix" result="effect1_dropShadow_353_7"/>
<feBlend mode="normal" in="SourceGraphic" in2="effect1_dropShadow_353_7" result="shape"/>
</filter>
</defs>
</svg>
