<svg width="24" height="28" viewBox="0 0 24 28" fill="none" xmlns="http://www.w3.org/2000/svg">
<path fill-rule="evenodd" clip-rule="evenodd" d="M3.46875 12.25C3.46875 9.98737 4.36758 7.81742 5.9675 6.2175C7.56742 4.61758 9.73737 3.71875 12 3.71875C14.2626 3.71875 16.4326 4.61758 18.0325 6.2175C19.6324 7.81742 20.5312 9.98737 20.5312 12.25C20.5312 15.512 19.1767 17.4335 17.579 18.9262C16.9052 19.5562 16.2402 20.0637 15.5315 20.6027L14.8927 21.0928C14.4148 21.4555 13.9584 21.8458 13.526 22.2617C13.1007 22.6817 12.5898 23.268 12.2485 24.0292C12.2128 24.1187 12.1557 24.198 12.0822 24.2603C12.0744 24.2664 12.0655 24.2711 12.056 24.2743C12.056 24.2743 12.0385 24.2812 12 24.2812C11.9615 24.2812 11.944 24.276 11.944 24.276C11.9344 24.2723 11.9255 24.267 11.9178 24.2603C11.8445 24.1985 11.7875 24.1198 11.7515 24.031C11.4387 23.3678 11.0055 22.7685 10.474 22.2635C10.0416 21.8476 9.5852 21.4572 9.10725 21.0945C8.8885 20.9247 8.67675 20.762 8.46675 20.6045C7.75661 20.0798 7.07379 19.5191 6.421 18.9245C4.825 17.4352 3.46875 15.5138 3.46875 12.25ZM23.375 12.25C23.375 18.2 19.7595 20.9562 17.1975 22.9092C16.088 23.758 15.1745 24.4528 14.8438 25.193C14.3713 26.25 13.379 27.125 12 27.125C10.621 27.125 9.6305 26.25 9.15625 25.193C8.82375 24.4528 7.91375 23.758 6.80075 22.9092C4.2405 20.9562 0.625 18.1982 0.625 12.25C0.625 9.23316 1.82343 6.33989 3.95666 4.20666C6.08989 2.07343 8.98316 0.875 12 0.875C15.0168 0.875 17.9101 2.07343 20.0433 4.20666C22.1766 6.33989 23.375 9.23316 23.375 12.25ZM14.625 12.25C14.625 12.9462 14.3484 13.6139 13.8562 14.1062C13.3639 14.5984 12.6962 14.875 12 14.875C11.3038 14.875 10.6361 14.5984 10.1438 14.1062C9.65156 13.6139 9.375 12.9462 9.375 12.25C9.375 11.5538 9.65156 10.8861 10.1438 10.3938C10.6361 9.90156 11.3038 9.625 12 9.625C12.6962 9.625 13.3639 9.90156 13.8562 10.3938C14.3484 10.8861 14.625 11.5538 14.625 12.25ZM17.25 12.25C17.25 13.6424 16.6969 14.9777 15.7123 15.9623C14.7277 16.9469 13.3924 17.5 12 17.5C10.6076 17.5 9.27226 16.9469 8.28769 15.9623C7.30312 14.9777 6.75 13.6424 6.75 12.25C6.75 10.8576 7.30312 9.52226 8.28769 8.53769C9.27226 7.55312 10.6076 7 12 7C13.3924 7 14.7277 7.55312 15.7123 8.53769C16.6969 9.52226 17.25 10.8576 17.25 12.25Z" fill="black"/>
</svg>
