<svg width="26" height="26" viewBox="0 0 26 26" fill="none" xmlns="http://www.w3.org/2000/svg">
<g clip-path="url(#clip0_214_73)">
<path d="M2.16667 22.75C1.57083 22.75 1.06094 22.538 0.637 22.1141C0.213056 21.6901 0.000722222 21.1799 0 20.5833V5.41667C0 4.82083 0.212333 4.31094 0.637 3.887C1.06167 3.46306 1.57156 3.25072 2.16667 3.25H23.8333C24.4292 3.25 24.9394 3.46233 25.3641 3.887C25.7888 4.31167 26.0007 4.82156 26 5.41667V20.5833C26 21.1792 25.788 21.6894 25.3641 22.1141C24.9401 22.5388 24.4299 22.7507 23.8333 22.75H2.16667ZM9.75 15.1667C10.6528 15.1667 11.4201 14.8507 12.0521 14.2188C12.684 13.5868 13 12.8194 13 11.9167C13 11.0139 12.684 10.2465 12.0521 9.61458C11.4201 8.98264 10.6528 8.66667 9.75 8.66667C8.84722 8.66667 8.07986 8.98264 7.44792 9.61458C6.81597 10.2465 6.5 11.0139 6.5 11.9167C6.5 12.8194 6.81597 13.5868 7.44792 14.2188C8.07986 14.8507 8.84722 15.1667 9.75 15.1667ZM20.5833 19.5L22.75 17.3333L21.125 15.1667H19.3375C19.2292 14.8417 19.1389 14.4943 19.0667 14.1245C18.9944 13.7547 18.9583 13.3799 18.9583 13C18.9583 12.6208 18.9944 12.2554 19.0667 11.9037C19.1389 11.5519 19.2292 11.1952 19.3375 10.8333H21.125L22.75 8.66667L20.5833 6.5C19.6083 7.25833 18.8229 8.21997 18.2271 9.38492C17.6313 10.5499 17.3333 11.7549 17.3333 13C17.3333 14.2458 17.6313 15.4512 18.2271 16.6162C18.8229 17.7811 19.6083 18.7424 20.5833 19.5ZM2.275 20.5833H17.225C16.4667 19.2292 15.4194 18.1686 14.0833 17.4016C12.7472 16.6346 11.3028 16.2507 9.75 16.25C8.19722 16.25 6.75278 16.6339 5.41667 17.4016C4.08056 18.1693 3.03333 19.2299 2.275 20.5833Z" fill="black"/>
</g>
<defs>
<clipPath id="clip0_214_73">
<rect width="26" height="26" fill="white"/>
</clipPath>
</defs>
</svg>
