<svg width="256" height="256" viewBox="0 0 256 256" fill="none" xmlns="http://www.w3.org/2000/svg">
<path d="M128 24C107.431 24 87.3235 30.0995 70.2207 41.5272C53.118 52.9548 39.7881 69.1974 31.9166 88.2009C24.0451 107.204 21.9855 128.115 25.9984 148.289C30.0112 168.463 39.9163 186.994 54.4609 201.539C69.0056 216.084 87.5366 225.989 107.711 230.002C127.885 234.015 148.796 231.955 167.799 224.083C186.803 216.212 203.045 202.882 214.473 185.779C225.901 168.677 232 148.569 232 128C231.971 100.426 221.004 73.9905 201.507 54.4931C182.01 34.9956 155.574 24.0291 128 24ZM128 216C110.595 216 93.5814 210.839 79.1099 201.169C64.6383 191.5 53.3592 177.756 46.6986 161.676C40.0381 145.596 38.2954 127.902 41.6909 110.832C45.0864 93.7617 53.4676 78.0816 65.7747 65.7746C78.0817 53.4676 93.7618 45.0864 110.832 41.6909C127.902 38.2954 145.596 40.0381 161.676 46.6986C177.756 53.3591 191.5 64.6383 201.169 79.1098C210.839 93.5813 216 110.595 216 128C215.974 151.331 206.694 173.699 190.196 190.196C173.699 206.694 151.331 215.974 128 216ZM176 160C176 162.122 175.157 164.157 173.657 165.657C172.157 167.157 170.122 168 168 168H88C85.8783 168 83.8435 167.157 82.3432 165.657C80.8429 164.157 80 162.122 80 160C80 157.878 80.8429 155.843 82.3432 154.343C83.8435 152.843 85.8783 152 88 152H168C170.122 152 172.157 152.843 173.657 154.343C175.157 155.843 176 157.878 176 160ZM80 108C80 105.627 80.7038 103.307 82.0224 101.333C83.341 99.3598 85.2151 97.8217 87.4078 96.9134C89.6006 96.0052 92.0134 95.7676 94.3411 96.2306C96.6689 96.6936 98.8071 97.8365 100.485 99.5147C102.164 101.193 103.306 103.331 103.769 105.659C104.232 107.987 103.995 110.399 103.087 112.592C102.178 114.785 100.64 116.659 98.6669 117.978C96.6935 119.296 94.3734 120 92 120C88.8174 120 85.7652 118.736 83.5148 116.485C81.2643 114.235 80 111.183 80 108ZM176 108C176 110.373 175.296 112.693 173.978 114.667C172.659 116.64 170.785 118.178 168.592 119.087C166.4 119.995 163.987 120.232 161.659 119.769C159.331 119.306 157.193 118.164 155.515 116.485C153.837 114.807 152.694 112.669 152.231 110.341C151.768 108.013 152.005 105.601 152.913 103.408C153.822 101.215 155.36 99.3409 157.333 98.0224C159.307 96.7038 161.627 96 164 96C167.183 96 170.235 97.2643 172.485 99.5147C174.736 101.765 176 104.817 176 108Z" fill="black"/>
</svg>
