<svg width="256" height="256" viewBox="0 0 256 256" fill="none" xmlns="http://www.w3.org/2000/svg">
<path d="M128 26C107.826 26 88.1057 31.9822 71.3319 43.1901C54.5581 54.398 41.4845 70.3282 33.7643 88.9663C26.0442 107.604 24.0243 128.113 27.9599 147.899C31.8956 167.685 41.6102 185.86 55.8752 200.125C70.1401 214.39 88.3148 224.104 108.101 228.04C127.887 231.976 148.396 229.956 167.034 222.236C185.672 214.516 201.602 201.442 212.81 184.668C224.018 167.894 230 148.174 230 128C229.968 100.958 219.212 75.032 200.09 55.9102C180.968 36.7884 155.042 26.0318 128 26ZM128 218C110.2 218 92.7991 212.722 77.9987 202.832C63.1983 192.943 51.6628 178.887 44.8509 162.442C38.039 145.996 36.2567 127.9 39.7294 110.442C43.202 92.9836 51.7737 76.9471 64.3604 64.3604C76.9472 51.7737 92.9836 43.202 110.442 39.7293C127.9 36.2567 145.996 38.039 162.442 44.8508C178.887 51.6627 192.943 63.1983 202.832 77.9987C212.722 92.7991 218 110.2 218 128C217.974 151.861 208.483 174.738 191.61 191.61C174.738 208.483 151.861 217.974 128 218ZM82 108C82 106.022 82.5865 104.089 83.6853 102.444C84.7842 100.8 86.3459 99.5181 88.1732 98.7612C90.0005 98.0043 92.0111 97.8063 93.951 98.1921C95.8908 98.578 97.6726 99.5304 99.0711 100.929C100.47 102.327 101.422 104.109 101.808 106.049C102.194 107.989 101.996 110 101.239 111.827C100.482 113.654 99.2002 115.216 97.5557 116.315C95.9113 117.414 93.9779 118 92 118C89.3479 118 86.8043 116.946 84.929 115.071C83.0536 113.196 82 110.652 82 108ZM174 108C174 109.978 173.414 111.911 172.315 113.556C171.216 115.2 169.654 116.482 167.827 117.239C166 117.996 163.989 118.194 162.049 117.808C160.109 117.422 158.327 116.47 156.929 115.071C155.53 113.673 154.578 111.891 154.192 109.951C153.806 108.011 154.004 106 154.761 104.173C155.518 102.346 156.8 100.784 158.444 99.6853C160.089 98.5865 162.022 98 164 98C166.652 98 169.196 99.0536 171.071 100.929C172.946 102.804 174 105.348 174 108ZM173.19 173C173.907 174.371 174.067 175.967 173.636 177.453C173.205 178.939 172.216 180.201 170.876 180.976C169.536 181.75 167.949 181.977 166.446 181.609C164.943 181.241 163.64 180.306 162.81 179C154.97 165.46 142.61 158 128 158C113.39 158 101 165.46 93.19 179C92.6631 179.913 91.9051 180.67 90.9922 181.197C90.0794 181.724 89.0439 182.001 87.99 182C86.9356 182.003 85.8997 181.723 84.99 181.19C83.6163 180.392 82.6154 179.081 82.2067 177.546C81.798 176.01 82.015 174.376 82.81 173C92.73 155.84 109.2 146 128 146C146.8 146 163.27 155.84 173.19 173Z" fill="black"/>
</svg>
