<svg width="204" height="204" viewBox="0 0 204 204" fill="none" xmlns="http://www.w3.org/2000/svg">
<path d="M147.19 129C137.27 146.16 120.8 156 102 156C83.2 156 66.73 146.16 56.81 129C56.0927 127.629 55.9329 126.033 56.3641 124.547C56.7953 123.061 57.784 121.799 59.1238 121.024C60.4636 120.25 62.0509 120.023 63.554 120.391C65.0571 120.759 66.3598 121.694 67.19 123C75.03 136.54 87.39 144 102 144C116.61 144 129 136.54 136.81 123C137.185 122.283 137.701 121.649 138.328 121.137C138.954 120.625 139.678 120.244 140.455 120.019C141.232 119.793 142.047 119.727 142.85 119.825C143.653 119.922 144.429 120.182 145.129 120.587C145.83 120.991 146.441 121.534 146.927 122.181C147.412 122.829 147.762 123.568 147.954 124.354C148.147 125.14 148.178 125.956 148.047 126.755C147.916 127.553 147.624 128.317 147.19 129ZM204 102C204 122.174 198.018 141.894 186.81 158.668C175.602 175.442 159.672 188.516 141.034 196.236C122.396 203.956 101.887 205.976 82.1008 202.04C62.3147 198.104 44.14 188.39 29.8751 174.125C15.6101 159.86 5.89558 141.685 1.95989 121.899C-1.97581 102.113 0.0441322 81.6044 7.76427 62.9663C15.4844 44.3282 28.558 28.398 45.3318 17.1901C62.1056 5.98219 81.8263 0 102 0C129.042 0.0317585 154.968 10.7884 174.09 29.9102C193.212 49.032 203.968 74.9577 204 102ZM192 102C192 84.1997 186.722 66.7991 176.832 51.9987C166.943 37.1983 152.887 25.6627 136.441 18.8508C119.996 12.039 101.9 10.2567 84.4419 13.7293C66.9836 17.202 50.9471 25.7737 38.3604 38.3604C25.7736 50.9471 17.202 66.9836 13.7293 84.4419C10.2566 101.9 12.0389 119.996 18.8508 136.442C25.6627 152.887 37.1982 166.943 51.9987 176.832C66.7991 186.722 84.1997 192 102 192C125.861 191.974 148.738 182.483 165.61 165.61C182.483 148.738 191.974 125.861 192 102ZM66 92C67.9778 92 69.9112 91.4135 71.5557 90.3147C73.2002 89.2159 74.4819 87.6541 75.2388 85.8268C75.9957 83.9996 76.1937 81.9889 75.8078 80.0491C75.422 78.1093 74.4696 76.3275 73.0711 74.9289C71.6725 73.5304 69.8907 72.578 67.9509 72.1921C66.0111 71.8063 64.0004 72.0043 62.1731 72.7612C60.3459 73.5181 58.7841 74.7998 57.6853 76.4443C56.5865 78.0888 56 80.0222 56 82C56 84.6522 57.0536 87.1957 58.9289 89.0711C60.8043 90.9464 63.3478 92 66 92ZM138 72C136.022 72 134.089 72.5865 132.444 73.6853C130.8 74.7841 129.518 76.3459 128.761 78.1732C128.004 80.0004 127.806 82.0111 128.192 83.9509C128.578 85.8907 129.53 87.6725 130.929 89.0711C132.327 90.4696 134.109 91.422 136.049 91.8079C137.989 92.1937 140 91.9957 141.827 91.2388C143.654 90.4819 145.216 89.2002 146.315 87.5557C147.413 85.9112 148 83.9778 148 82C148 79.3478 146.946 76.8043 145.071 74.9289C143.196 73.0536 140.652 72 138 72Z" fill="black"/>
</svg>
