<svg width="63" height="60" viewBox="0 0 63 60" fill="none" xmlns="http://www.w3.org/2000/svg">
<g filter="url(#filter0_d_299_5)">
<path d="M4 15C4 6.71573 10.7157 0 19 0H38C46.2843 0 53 6.71573 53 15V37C53 45.2843 46.2843 52 38 52H19C10.7157 52 4 45.2843 4 37V15Z" fill="white"/>
</g>
<path d="M26.75 41.8333C26.75 42.5461 26.9871 43.2296 27.409 43.7336C27.831 44.2376 28.4033 44.5208 29 44.5208C29.5967 44.5208 30.169 44.2376 30.591 43.7336C31.0129 43.2296 31.25 42.5461 31.25 41.8333V30.1875H41C41.5967 30.1875 42.169 29.9043 42.591 29.4003C43.0129 28.8963 43.25 28.2127 43.25 27.5C43.25 26.7872 43.0129 26.1036 42.591 25.5996C42.169 25.0956 41.5967 24.8125 41 24.8125H31.25V13.1666C31.25 12.4539 31.0129 11.7703 30.591 11.2663C30.169 10.7623 29.5967 10.4791 29 10.4791C28.4033 10.4791 27.831 10.7623 27.409 11.2663C26.9871 11.7703 26.75 12.4539 26.75 13.1666V24.8125H17C16.4033 24.8125 15.831 25.0956 15.409 25.5996C14.9871 26.1036 14.75 26.7872 14.75 27.5C14.75 28.2127 14.9871 28.8963 15.409 29.4003C15.831 29.9043 16.4033 30.1875 17 30.1875H26.75V41.8333Z" fill="#D98E8E"/>
<defs>
<filter id="filter0_d_299_5" x="0" y="0" width="57" height="60" filterUnits="userSpaceOnUse" color-interpolation-filters="sRGB">
<feFlood flood-opacity="0" result="BackgroundImageFix"/>
<feColorMatrix in="SourceAlpha" type="matrix" values="0 0 0 0 0 0 0 0 0 0 0 0 0 0 0 0 0 0 127 0" result="hardAlpha"/>
<feOffset dy="4"/>
<feGaussianBlur stdDeviation="2"/>
<feComposite in2="hardAlpha" operator="out"/>
<feColorMatrix type="matrix" values="0 0 0 0 0 0 0 0 0 0 0 0 0 0 0 0 0 0 0.25 0"/>
<feBlend mode="normal" in2="BackgroundImageFix" result="effect1_dropShadow_299_5"/>
<feBlend mode="normal" in="SourceGraphic" in2="effect1_dropShadow_299_5" result="shape"/>
</filter>
</defs>
</svg>
