<svg width="22" height="22" viewBox="0 0 22 22" fill="none" xmlns="http://www.w3.org/2000/svg">
<path d="M1 4.35417L4.35417 1L7.70833 4.35417H1ZM13.4583 4.35417L16.8125 1L20.1667 4.35417H13.4583ZM20.1667 20.1667V11.5417H18.25V7.22917H15.375V11.5417H12.5V9.14583L10.5833 7.22917L8.66667 9.14583V11.5417H5.79167V7.22917H2.91667V11.5417H1V20.1667H7.70833V18.25C7.70833 17.4875 8.01123 16.7562 8.5504 16.2171C9.08957 15.6779 9.82084 15.375 10.5833 15.375C11.3458 15.375 12.0771 15.6779 12.6163 16.2171C13.1554 16.7562 13.4583 17.4875 13.4583 18.25V20.1667H20.1667ZM2.4375 4.35417H6.27083V7.22917H2.4375V4.35417ZM14.8958 4.35417H18.7292V7.22917H14.8958V4.35417Z" stroke="black" stroke-width="1.91667" stroke-linecap="round" stroke-linejoin="round"/>
</svg>
