<svg width="124" height="63" viewBox="0 0 124 63" fill="none" xmlns="http://www.w3.org/2000/svg">
<path d="M18.9453 62.5344C14.5067 62.5344 10.0681 62.5507 5.62944 62.529C2.67127 62.5154 0.643823 60.8997 0.102263 58.1415C-0.183485 56.6944 0.137641 55.3643 0.964949 54.1321C3.85508 49.8344 6.76155 45.5503 9.58909 41.2145C11.3417 38.5271 12.784 35.6683 12.8738 32.3661C12.95 29.5536 12.8956 26.7356 12.8956 23.9203C12.8956 23.5477 12.8738 23.175 12.901 22.8051C12.9364 22.2991 12.7949 21.9319 12.4085 21.5511C11.6057 20.7569 11.4152 19.7477 11.7962 18.6842C12.2153 17.5173 13.1024 16.8291 14.3189 16.8073C17.4267 16.7529 20.5373 16.7502 23.6452 16.81C24.8208 16.8345 25.7025 17.5091 26.1216 18.6407C26.5353 19.764 26.2632 20.7596 25.4739 21.6626C25.2426 21.9292 25.0576 22.3399 25.0549 22.6854C25.0249 25.8461 25.0168 29.0068 25.0467 32.1676C25.0739 34.9311 26.0264 37.4554 27.4742 39.7375C30.2283 44.0869 33.1238 48.3493 35.9623 52.6497C36.2698 53.1148 36.5719 53.5827 36.893 54.0396C38.1802 55.8703 38.2891 57.8069 37.2604 59.7491C36.2671 61.6232 34.6179 62.529 32.4979 62.5344C28.2988 62.5426 24.0996 62.5372 19.9005 62.5399C19.5848 62.5317 19.2664 62.5317 18.9453 62.5344ZM14.806 22.4787C14.806 22.835 14.806 23.1206 14.806 23.4035C14.806 26.352 14.8224 29.3006 14.7897 32.2492C14.7815 33.0652 14.6836 33.8948 14.5257 34.6972C13.9379 37.6675 12.5364 40.2897 10.8899 42.7813C8.13858 46.9457 5.33009 51.0748 2.55153 55.2229C1.77049 56.3898 1.71878 57.6247 2.36647 58.8433C2.97335 59.9884 3.96938 60.5896 5.28654 60.5896C14.376 60.5923 23.4656 60.5923 32.5523 60.5896C33.9239 60.5896 34.9853 60.0129 35.5976 58.7862C36.2126 57.5567 36.15 56.3354 35.3418 55.1739C34.539 54.0179 33.7579 52.8455 32.985 51.6705C30.5902 48.0337 28.1355 44.4351 25.8305 40.7412C23.9091 37.6621 22.9349 34.2865 23.1118 30.5926C23.2261 28.1799 23.1335 25.7591 23.1281 23.3409C23.1281 23.0608 23.0982 22.7806 23.0818 22.4759C20.3114 22.4787 17.6336 22.4787 14.806 22.4787ZM18.9181 20.5474C20.3495 20.5474 21.781 20.5365 23.2125 20.5529C23.8602 20.561 24.3555 20.3407 24.3799 19.658C24.4044 18.9698 23.9282 18.7141 23.2723 18.7141C20.4094 18.7195 17.5492 18.7141 14.6863 18.7087C14.044 18.7059 13.5515 18.9317 13.5623 19.6362C13.5732 20.3325 14.0658 20.5556 14.7053 20.5501C16.1069 20.542 17.5111 20.5474 18.9181 20.5474Z" fill="#010202"/>
<path d="M18.9534 59.2404C14.5176 59.2404 10.0817 59.2323 5.64304 59.2486C4.7477 59.2513 3.99659 59.0228 3.57477 58.1932C3.16656 57.3908 3.29719 56.6319 3.81425 55.8757C5.51241 53.4032 7.16431 50.898 8.85158 48.42C9.62446 47.2857 10.4001 47.1062 11.4478 47.9576C14.7951 50.6804 18.4826 49.6821 21.0925 47.6312C21.7184 47.1388 22.3062 46.5948 22.9458 46.1242C24.633 44.8812 26.7122 45.1858 27.9042 46.894C30.016 49.9187 32.0842 52.9734 34.1716 56.0171C34.6478 56.7108 34.7376 57.4397 34.3349 58.1905C33.9294 58.9467 33.2626 59.2459 32.4217 59.2459C27.9314 59.2404 23.4438 59.2431 18.9534 59.2431V59.2404Z" fill="#D98E8E"/>
<path d="M22.064 0.00272273C22.5539 0.133286 23.0328 0.282892 23.4165 0.641941C23.7758 0.97923 24.0125 1.38452 24.1541 1.84965C24.1867 1.96118 24.2303 2.06998 24.2656 2.16518C24.6357 2.06998 24.9732 1.94213 25.3215 1.90405C26.391 1.78981 27.3408 2.32295 27.7899 3.24505C28.2416 4.17259 28.0402 5.37486 27.3054 6.15008C26.6469 6.84098 25.8087 7.23811 24.916 7.48292C23.9962 7.73588 23.0546 7.90181 22.1157 8.07317C21.664 8.15478 21.2639 7.97525 21.019 7.57812C20.2026 6.24801 19.5168 4.86349 19.2909 3.29401C19.0705 1.76261 19.8379 0.473294 21.1877 0.103364C21.3075 0.0707232 21.4272 0.0353609 21.5469 0C21.7157 0.00272007 21.8898 0.00272273 22.064 0.00272273Z" fill="#D98E8E"/>
<path d="M15.3939 14.7101C14.2781 14.4436 13.2031 14.0764 12.3214 13.3093C11.4614 12.5613 11.3988 11.3726 12.1581 10.6328C12.6371 10.1676 13.3582 10.0507 14.0032 10.3363C14.1311 10.3934 14.2509 10.4614 14.3869 10.5294C14.6183 9.95546 14.9693 9.51752 15.5707 9.34616C16.7899 8.99799 17.9357 10.0643 17.7207 11.359C17.6608 11.7181 17.5791 12.0989 17.405 12.409C17.0185 13.0971 16.5749 13.7527 16.1395 14.4109C15.9654 14.6639 15.6959 14.7809 15.3939 14.7101Z" fill="#D98E8E"/>
<path d="M18.099 30.1737C17.5411 30.0405 17.0022 29.8582 16.5614 29.472C16.1314 29.0966 16.1014 28.5036 16.4797 28.1337C16.7192 27.8998 17.0812 27.8426 17.4023 27.9868C17.4649 28.014 17.5275 28.0494 17.5955 28.0847C17.7098 27.7964 17.8867 27.5788 18.186 27.4917C18.7956 27.3177 19.3699 27.8508 19.261 28.4982C19.2311 28.6777 19.1903 28.8681 19.1032 29.0231C18.9099 29.3659 18.6895 29.695 18.4691 30.0241C18.3847 30.152 18.2486 30.2091 18.099 30.1737Z" fill="#D98E8E"/>
<path d="M19.7862 38.0048C19.2691 37.3574 18.8174 36.6693 18.6541 35.8396C18.4962 35.0318 18.9888 34.3218 19.7508 34.2375C20.2325 34.1831 20.6951 34.4388 20.9346 34.8876C20.9809 34.9774 21.0217 35.0699 21.068 35.1678C21.4544 34.942 21.849 34.8468 22.2708 35.0182C23.1226 35.3609 23.3022 36.4789 22.6028 37.1235C22.4096 37.303 22.1946 37.4826 21.9552 37.5832C21.4299 37.8035 20.8829 37.9803 20.3414 38.1626C20.1318 38.2333 19.925 38.1816 19.7862 38.0048Z" fill="#D98E8E"/>
<path d="M17.3261 47.3863C16.2103 47.1198 15.1353 46.7526 14.2536 45.9855C13.3936 45.2375 13.331 44.0488 14.0903 43.309C14.5693 42.8438 15.2904 42.7269 15.9354 43.0125C16.0633 43.0696 16.1831 43.1376 16.3191 43.2056C16.5504 42.6317 16.9015 42.1937 17.5029 42.0224C18.7221 41.6742 19.8678 42.7405 19.6529 44.0352C19.593 44.3943 19.5113 44.7751 19.3372 45.0852C18.9507 45.7733 18.5071 46.4289 18.0717 47.0871C17.8975 47.3428 17.6254 47.4598 17.3261 47.3863Z" fill="#D98E8E"/>
<path d="M47.6584 43.6174H49.5809C49.872 43.6174 50.0749 43.8969 49.9907 44.1725L47.7886 51.6176C47.7043 51.8817 47.4516 52.077 47.172 52.077H45.7091C45.418 52.077 45.1652 51.8856 45.0925 51.5947L44.0048 47.5601L42.9287 51.5947C42.8444 51.8856 42.5917 52.077 42.3006 52.077H40.8491C40.5581 52.077 40.3053 51.8856 40.2326 51.6176L38.019 44.1725C37.9347 43.893 38.1415 43.6174 38.4288 43.6174H40.3513C40.6041 43.6174 40.8223 43.7859 40.8721 44.027L41.8525 48.1113L42.9517 44.0155C43.0129 43.7744 43.2312 43.6174 43.4725 43.6174H44.5487C44.7899 43.6174 45.0082 43.7744 45.0695 44.0155L46.1686 48.1113L47.1376 44.027C47.1988 43.7897 47.4133 43.6174 47.6584 43.6174Z" fill="black"/>
<path d="M56.191 49.8071C56.4935 49.8071 56.7348 50.0482 56.7348 50.3391V51.5334C56.7348 51.8358 56.4935 52.077 56.191 52.077H51.3081C51.0056 52.077 50.7643 51.8358 50.7643 51.5334V44.1495C50.7643 43.8586 51.0056 43.6174 51.3081 43.6174H56.0838C56.3748 43.6174 56.6161 43.8586 56.6161 44.1495V45.3591C56.6161 45.65 56.3748 45.8912 56.0838 45.8912H53.4834V46.8328H55.697C55.9995 46.8328 56.2408 47.074 56.2408 47.3649V48.2453C56.2408 48.5477 55.9995 48.7888 55.697 48.7888H53.4834V49.8032H56.191V49.8071Z" fill="black"/>
<path d="M65.681 47.8472C65.681 50.408 63.8811 52.077 61.0624 52.077H58.2207C57.9297 52.077 57.6884 51.8358 57.6884 51.5334V44.1495C57.6884 43.8586 57.9297 43.6174 58.2207 43.6174H61.0624C63.8811 43.6174 65.681 45.2749 65.681 47.8472ZM62.9619 47.8472C62.9619 46.8328 62.3109 46.1055 61.0624 46.1055H60.4075V49.585H61.0624C62.3071 49.5889 62.9619 48.8654 62.9619 47.8472Z" fill="black"/>
<path d="M74.5928 47.8472C74.5928 50.408 72.7928 52.077 69.9741 52.077H67.1325C66.8414 52.077 66.6002 51.8358 66.6002 51.5334V44.1495C66.6002 43.8586 66.8414 43.6174 67.1325 43.6174H69.9741C72.789 43.6174 74.5928 45.2749 74.5928 47.8472ZM71.8699 47.8472C71.8699 46.8328 71.2188 46.1055 69.9703 46.1055H69.3154V49.585H69.9703C71.2188 49.5889 71.8699 48.8654 71.8699 47.8472Z" fill="black"/>
<path d="M76.0557 43.6174H77.6872C77.9897 43.6174 78.231 43.8586 78.231 44.1495V51.5334C78.231 51.8358 77.9897 52.077 77.6872 52.077H76.0557C75.7532 52.077 75.5119 51.8358 75.5119 51.5334V44.1495C75.5119 43.8624 75.7532 43.6174 76.0557 43.6174Z" fill="black"/>
<path d="M85.0862 43.6174H86.7292C87.0317 43.6174 87.273 43.8586 87.273 44.1495V51.5334C87.273 51.8358 87.0317 52.077 86.7292 52.077H85.1705C84.9522 52.077 84.7492 51.9545 84.6267 51.7746L82.1603 47.7974V51.5296C82.1603 51.832 81.919 52.0731 81.6165 52.0731H79.9736C79.671 52.0731 79.4412 51.832 79.4412 51.5296V44.1457C79.4412 43.8548 79.671 43.6136 79.9736 43.6136H81.5322C81.7505 43.6136 81.9535 43.7208 82.0761 43.916L84.5539 47.8931V44.1457C84.5539 43.8624 84.7837 43.6174 85.0862 43.6174Z" fill="black"/>
<path d="M92.9563 47.185H96.2575C96.5601 47.185 96.8014 47.4261 96.8014 47.717V51.6444C96.8014 51.8856 96.6099 52.0808 96.3648 52.0808H95.9167C95.7252 52.0808 95.5529 51.9468 95.5069 51.7554L95.3499 51.1736C94.7218 51.8282 93.8142 52.2262 92.6423 52.2262C90.1032 52.2262 88.1807 50.343 88.1807 47.851C88.1807 45.3476 90.1032 43.4643 92.6423 43.4643C93.998 43.4643 95.1814 44.0079 95.978 44.8921C96.158 45.0835 96.112 45.4012 95.8937 45.5313L94.335 46.5687C94.1665 46.6759 93.9597 46.6529 93.8142 46.5189C93.5001 46.2548 93.1019 46.1093 92.6423 46.1093C91.6389 46.1093 90.8883 46.8328 90.8883 47.851C90.8883 48.9267 91.6389 49.6999 92.6423 49.6999C93.3661 49.6999 93.8984 49.4587 94.178 48.9267H92.9563C92.6653 48.9267 92.424 48.697 92.424 48.3946V47.717C92.424 47.4261 92.6653 47.185 92.9563 47.185Z" fill="black"/>
<path d="M106.494 49.5889C106.797 49.5889 107.027 49.83 107.027 50.1209V51.5334C107.027 51.8358 106.797 52.077 106.494 52.077H101.696C101.405 52.077 101.163 51.8358 101.163 51.5334V44.1495C101.163 43.8586 101.405 43.6174 101.696 43.6174H103.339C103.641 43.6174 103.871 43.8586 103.871 44.1495V49.5889H106.494Z" fill="black"/>
<path d="M113.204 51.6789L112.951 50.7717H110.558L110.305 51.6789C110.244 51.92 110.025 52.077 109.784 52.077H107.873C107.582 52.077 107.364 51.7861 107.463 51.5104L109.953 44.0538C110.048 43.8012 110.29 43.6174 110.569 43.6174H112.94C113.219 43.6174 113.472 43.7973 113.556 44.0538L116.046 51.5104C116.141 51.7899 115.938 52.077 115.647 52.077H113.725C113.484 52.077 113.277 51.92 113.204 51.6789ZM112.43 48.8884L111.753 46.4347L111.075 48.8884H112.43Z" fill="black"/>
<path d="M124 49.5659C124 51.3076 122.817 52.0808 120.48 52.0808H117.375C117.083 52.0808 116.842 51.8396 116.842 51.5372V44.1533C116.842 43.8624 117.083 43.6212 117.375 43.6212H120.155C122.499 43.6212 123.674 44.2988 123.674 45.895C123.674 46.7524 123.288 47.296 122.621 47.6213V47.6443C123.483 47.9812 124 48.5974 124 49.5659ZM119.554 45.5658V46.8596H120.048C120.614 46.8596 120.929 46.6682 120.929 46.2204C120.929 45.7725 120.614 45.5658 120.048 45.5658H119.554ZM121.246 49.3592C121.246 48.9113 120.944 48.7046 120.377 48.7046H119.554V50.0214H120.377C120.944 50.0252 121.246 49.7955 121.246 49.3592Z" fill="black"/>
</svg>
